<svg width="38" height="25" viewBox="0 0 38 25" xmlns="http://www.w3.org/2000/svg">
<path d="M37.2735 11.5495C33.7429 4.66081 26.7533 0 18.75 0C10.7467 0 3.75518 4.66406 0.226527 11.5501C0.077596 11.8447 0 12.1702 0 12.5003C0 12.8304 0.077596 13.1559 0.226527 13.4505C3.75713 20.3392 10.7467 25 18.75 25C26.7533 25 33.7448 20.3359 37.2735 13.4499C37.4224 13.1553 37.5 12.8298 37.5 12.4997C37.5 12.1696 37.4224 11.8441 37.2735 11.5495ZM18.75 21.875C16.8958 21.875 15.0832 21.3252 13.5415 20.295C11.9998 19.2649 10.7982 17.8007 10.0886 16.0877C9.37904 14.3746 9.19338 12.4896 9.55512 10.671C9.91686 8.85246 10.8097 7.18199 12.1209 5.87087C13.432 4.55976 15.1024 3.66687 16.921 3.30514C18.7396 2.9434 20.6246 3.12906 22.3377 3.83863C24.0507 4.5482 25.5149 5.74982 26.545 7.29153C27.5752 8.83324 28.125 10.6458 28.125 12.5C28.1256 13.7313 27.8835 14.9507 27.4126 16.0884C26.9417 17.2261 26.2511 18.2598 25.3805 19.1305C24.5098 20.0011 23.4761 20.6917 22.3384 21.1626C21.2007 21.6335 19.9813 21.8756 18.75 21.875ZM18.75 6.25C18.1921 6.2578 17.6379 6.34079 17.1022 6.49674C17.5438 7.09679 17.7556 7.83521 17.6995 8.57809C17.6433 9.32096 17.3227 10.0191 16.7959 10.5459C16.2691 11.0727 15.571 11.3933 14.8281 11.4495C14.0852 11.5057 13.3468 11.2938 12.7467 10.8522C12.405 12.1111 12.4667 13.4454 12.9231 14.6673C13.3795 15.8893 14.2075 16.9374 15.2908 17.664C16.374 18.3907 17.6578 18.7594 18.9616 18.7182C20.2653 18.677 21.5233 18.228 22.5585 17.4344C23.5937 16.6408 24.354 15.5426 24.7323 14.2943C25.1106 13.0459 25.088 11.7104 24.6675 10.4756C24.2471 9.24086 23.45 8.16903 22.3884 7.41101C21.3269 6.65298 20.0544 6.24693 18.75 6.25Z"/>
</svg>
