<svg class="rooms-svg-map" width="483" height="283" viewBox="0 0 483 283" fill="none"
  xmlns="http://www.w3.org/2000/svg">

  <!-- Песни и стихи -->
  <g fill="#1B1A1A">
    <rect height="72.215195" width="184.03505" fill="#1b1a1a" y="192.29799" x="41.582058" />
    <rect x="0.866044" width="122.299" height="168.66" transform="matrix(0.866044 -0.499967 0.866044 0.499967 92.8929 192.633)" stroke="#EDC92F"/>
    <path d="M46.352 246.68H50.36V254H51.572V245.636H45.14V254H46.352V246.68ZM53.8353 245.636V254H59.7273V252.956H55.0473V250.088H58.3713V249.056H55.0473V246.68H59.7273V245.636H53.8353ZM60.7741 249.74C60.7741 253.148 62.0221 254.168 64.6501 254.168C65.4061 254.168 66.3661 254.048 67.0141 253.856L66.7141 252.764C66.2341 252.932 65.4061 253.04 64.7941 253.04C62.8261 253.04 62.0941 252.56 62.0941 249.752C62.0941 246.932 62.8261 246.548 64.7941 246.548C65.4061 246.548 66.2341 246.656 66.7141 246.836L67.0141 245.744C66.3781 245.564 65.4061 245.432 64.6501 245.432C62.0221 245.432 60.7741 246.32 60.7741 249.74ZM69.5903 250.1H73.5983V254H74.8103V245.636H73.5983V248.984H69.5903V245.636H68.3783V254H69.5903V250.1ZM83.8176 245.636H82.3416C81.1176 247.904 79.7376 250.232 78.2736 252.512V245.636H77.0736V254H78.6936C80.0496 251.948 81.4056 249.632 82.6176 247.424V254H83.8176V245.636ZM96.1574 245.636H94.6814C93.4574 247.904 92.0774 250.232 90.6134 252.512V245.636H89.4134V254H91.0334C92.3894 251.948 93.7454 249.632 94.9574 247.424V254H96.1574V245.636ZM101.309 249.74C101.309 253.148 102.557 254.168 105.185 254.168C105.941 254.168 106.901 254.048 107.549 253.856L107.249 252.764C106.769 252.932 105.941 253.04 105.329 253.04C103.361 253.04 102.629 252.56 102.629 249.752C102.629 246.932 103.361 246.548 105.329 246.548C105.941 246.548 106.769 246.656 107.249 246.836L107.549 245.744C106.913 245.564 105.941 245.432 105.185 245.432C102.557 245.432 101.309 246.32 101.309 249.74ZM111.925 254V246.68H114.781V245.636H107.821V246.68H110.689V254H111.925ZM122.712 245.636H121.236C120.012 247.904 118.632 250.232 117.168 252.512V245.636H115.968V254H117.588C118.944 251.948 120.3 249.632 121.512 247.424V254H122.712V245.636ZM125.52 245.636H123.972C124.944 246.86 126.06 248.324 127.14 249.764C126.024 251.264 124.872 252.788 123.912 254H125.388C126.192 252.98 127.032 251.888 127.884 250.76C128.7 251.876 129.48 252.968 130.212 254H131.724C130.824 252.716 129.732 251.204 128.64 249.728C129.672 248.336 130.68 246.944 131.592 245.636H130.116C129.432 246.62 128.676 247.676 127.896 248.72C127.044 247.604 126.24 246.56 125.52 245.636ZM139.669 245.636H138.193C136.969 247.904 135.589 250.232 134.125 252.512V245.636H132.925V254H134.545C135.901 251.948 137.257 249.632 138.469 247.424V254H139.669V245.636Z" fill="#EDC92F"/>
    <line x1="44" y1="258.5" x2="144" y2="258.5" stroke="#EDC92F"/>
    <line x1="143.226" y1="258.852" x2="167.368" y2="234.71" stroke="#EDC92F"/>
    <circle cx="167.086" cy="234.428" r="3.17653" fill="#EDC92F"/>
  </g>

  <!-- Кабинет -->
  <g fill="#1B1A1A" data-rooms-map="7">
    <rect height="67.904907" width="128.83247" fill="#1b1a1a" y="0.062437758" x="228.92154" />
    <rect x="0.866044" width="100.964" height="124.196" transform="matrix(0.866044 -0.499967 0.866044 0.499967 140.957 57.765)" stroke="white"/>
    <path d="M308.68 9C307.06 5.172 306.208 4.716 305.128 4.404C305.596 4.056 306.808 2.796 308.512 0.636H306.976C305.584 2.496 304.096 4.056 303.352 4.68V0.636H302.14V9H303.352V4.956C305.008 5.088 305.872 5.676 307.228 9H308.68ZM315.48 9H316.848C315.876 6.732 314.664 3.396 313.764 0.636H311.784C310.692 3.288 309.564 6.36 308.688 9H309.948C310.188 8.244 310.44 7.464 310.704 6.672H314.58C314.88 7.512 315.204 8.304 315.48 9ZM312.888 1.644C313.284 2.916 313.74 4.308 314.22 5.628H311.052C311.532 4.272 312.036 2.928 312.552 1.644H312.888ZM319.125 7.968V5.064H322.041C322.761 5.064 323.085 5.664 323.085 6.564C323.085 7.428 322.821 7.968 322.089 7.968H319.125ZM323.589 0.636H317.913V9H322.269C323.613 9 324.393 8.268 324.393 6.576C324.393 5.028 323.841 4.068 322.173 4.068H319.125V1.68H323.589V0.636ZM333.06 0.636H331.584C330.36 2.904 328.98 5.232 327.516 7.512V0.636H326.316V9H327.936C329.292 6.948 330.648 4.632 331.86 2.424V9H333.06V0.636ZM336.551 5.1H340.559V9H341.771V0.636H340.559V3.984H336.551V0.636H335.339V9H336.551V5.1ZM344.035 0.636V9H349.927V7.956H345.247V5.088H348.571V4.056H345.247V1.68H349.927V0.636H344.035ZM354.429 9V1.68H357.285V0.636H350.325V1.68H353.193V9H354.429Z" fill="white"/>
    <circle cx="278.9" cy="36.2127" r="3.17653" fill="white"/>
    <line x1="355.772" y1="13.2061" x2="301.136" y2="13.2061" stroke="white"/>
    <line x1="301.489" y1="13.0596" x2="278.618" y2="35.9306" stroke="white"/>
  </g>

  <!-- Стрелочка -->
  <path d="M243.173 116.054C243.173 115.859 242.899 115.701 242.56 115.701L237.049 115.701C236.711 115.701 236.437 115.859 236.437 116.054C236.437 116.249 236.711 116.408 237.049 116.408L241.948 116.408L241.948 119.236C241.948 119.431 242.222 119.589 242.56 119.589C242.899 119.589 243.173 119.431 243.173 119.236L243.173 116.054ZM209.46 135.663L242.993 116.304L242.127 115.804L208.594 135.163L209.46 135.663Z" fill="white"/>
</svg>
