<svg width="15" height="15" viewBox="0 0 15 15" fill="none" xmlns="http://www.w3.org/2000/svg">
<g clip-path="url(#clip0)">
<path d="M9.51887 7.45409L14.5643 2.55658C14.7006 2.42881 14.8093 2.27598 14.8841 2.107C14.9589 1.93802 14.9983 1.75627 14.9999 1.57237C15.0016 1.38847 14.9655 1.20608 14.8937 1.03587C14.822 0.86565 14.716 0.711007 14.582 0.580962C14.448 0.450917 14.2886 0.348073 14.1132 0.278432C13.9378 0.208791 13.7498 0.173747 13.5603 0.175345C13.3708 0.176943 13.1835 0.215152 13.0094 0.28774C12.8353 0.360329 12.6778 0.465844 12.5461 0.598129L7.49929 5.49425L2.45389 0.598129C2.32223 0.465844 2.16474 0.360329 1.9906 0.28774C1.81647 0.215152 1.62918 0.176943 1.43967 0.175345C1.25016 0.173747 1.06222 0.208791 0.886811 0.278432C0.711405 0.348073 0.552048 0.450917 0.418037 0.580962C0.284027 0.711007 0.178048 0.86565 0.106284 1.03587C0.0345191 1.20608 -0.00159292 1.38847 5.38895e-05 1.57237C0.0017007 1.75627 0.0410738 1.93802 0.115876 2.107C0.190677 2.27598 0.299409 2.42881 0.435728 2.55658L5.48113 7.4527L0.435728 12.3502C0.299409 12.478 0.190677 12.6308 0.115876 12.7998C0.0410738 12.9688 0.0017007 13.1505 5.38895e-05 13.3344C-0.00159292 13.5183 0.0345191 13.7007 0.106284 13.8709C0.178048 14.0411 0.284027 14.1958 0.418037 14.3258C0.552048 14.4559 0.711405 14.5587 0.886811 14.6284C1.06222 14.698 1.25016 14.733 1.43967 14.7314C1.62918 14.7298 1.81647 14.6916 1.9906 14.619C2.16474 14.5465 2.32223 14.4409 2.45389 14.3087L7.49929 9.41254L12.5461 14.3087C12.6778 14.4409 12.8353 14.5465 13.0094 14.619C13.1835 14.6916 13.3708 14.7298 13.5603 14.7314C13.7498 14.733 13.9378 14.698 14.1132 14.6284C14.2886 14.5587 14.448 14.4559 14.582 14.3258C14.716 14.1958 14.822 14.0411 14.8937 13.8709C14.9655 13.7007 15.0016 13.5183 14.9999 13.3344C14.9983 13.1505 14.9589 12.9688 14.8841 12.7998C14.8093 12.6308 14.7006 12.478 14.5643 12.3502L9.51887 7.4527V7.45409Z" fill="white"/>
</g>
<defs>
<clipPath id="clip0">
<rect width="15" height="14.5562" fill="white" transform="translate(0 0.175293)"/>
</clipPath>
</defs>
</svg>
