<svg width="45" height="45" viewBox="0 0 45 45" fill="none" xmlns="http://www.w3.org/2000/svg">
<path d="M45 22.5C45 19.5453 44.418 16.6194 43.2873 13.8896C42.1566 11.1598 40.4992 8.67941 38.4099 6.5901C36.3206 4.50078 33.8402 2.84344 31.1104 1.71271C28.3805 0.581979 25.4547 -1.29156e-07 22.5 0C19.5453 1.29156e-07 16.6194 0.58198 13.8896 1.71271C11.1598 2.84344 8.67941 4.50078 6.5901 6.5901C4.50078 8.67942 2.84344 11.1598 1.71271 13.8896C0.581979 16.6194 -2.58312e-07 19.5453 0 22.5L5.45689 22.5C5.45689 20.2619 5.89773 18.0457 6.75422 15.9779C7.61072 13.9101 8.8661 12.0313 10.4487 10.4487C12.0313 8.86611 13.9101 7.61072 15.9779 6.75422C18.0456 5.89773 20.2619 5.45689 22.5 5.45689C24.7381 5.45689 26.9543 5.89773 29.0221 6.75422C31.0899 7.61072 32.9687 8.86611 34.5513 10.4487C36.1339 12.0313 37.3893 13.9101 38.2458 15.9779C39.1023 18.0456 39.5431 20.2619 39.5431 22.5L45 22.5Z" fill="white"/>
<path d="M5.78171e-06 22.5C5.5234e-06 25.4547 0.581983 28.3805 1.71272 31.1104C2.84345 33.8402 4.50078 36.3206 6.5901 38.4099C8.67942 40.4992 11.1598 42.1566 13.8896 43.2873C16.6195 44.418 19.5453 45 22.5 45C25.4547 45 28.3806 44.418 31.1104 43.2873C33.8402 42.1566 36.3206 40.4992 38.4099 38.4099C40.4992 36.3206 42.1566 33.8402 43.2873 31.1104C44.418 28.3806 45 25.4547 45 22.5L39.5431 22.5C39.5431 24.7381 39.1023 26.9543 38.2458 29.0221C37.3893 31.0899 36.1339 32.9687 34.5513 34.5513C32.9687 36.1339 31.0899 37.3893 29.0221 38.2458C26.9544 39.1023 24.7381 39.5431 22.5 39.5431C20.2619 39.5431 18.0457 39.1023 15.9779 38.2458C13.9101 37.3893 12.0313 36.1339 10.4487 34.5513C8.86611 32.9687 7.61072 31.0899 6.75423 29.0221C5.89773 26.9543 5.4569 24.7381 5.4569 22.5L5.78171e-06 22.5Z" fill="white"/>
<rect y="16" width="45" height="11" fill="#1B1A1A"/>
<path d="M2.57966 23.298V21.912H4.13666C4.56866 21.912 4.75766 22.173 4.75766 22.65C4.75766 23.109 4.60466 23.298 4.16366 23.298H2.57966ZM2.57966 20.139H4.10066C4.53266 20.139 4.65866 20.274 4.65866 20.67C4.65866 21.03 4.53266 21.255 4.10066 21.255H2.57966V20.139ZM4.57766 21.552C5.40566 21.489 5.54966 21.102 5.54966 20.526C5.54966 19.905 5.32466 19.437 4.30766 19.437H1.73366V24H4.37066C5.18966 24 5.66666 23.604 5.66666 22.731C5.66666 22.083 5.44166 21.588 4.57766 21.552ZM9.21653 23.316H7.66853V21.867H9.20753C9.63953 21.867 9.84653 22.047 9.84653 22.569C9.84653 23.118 9.65753 23.316 9.21653 23.316ZM7.66853 21.174V19.437H6.81353V24H9.35153C10.3145 24 10.7555 23.586 10.7555 22.56C10.7555 21.633 10.3145 21.174 9.35153 21.174H7.66853ZM12.1595 19.437H11.3045V24H12.1595V19.437ZM17.3368 24C16.8688 23.28 16.3108 22.461 15.7438 21.687C16.3198 20.913 16.8688 20.121 17.3278 19.437H16.3558C16.0588 19.896 15.6988 20.454 15.2668 21.03C14.8528 20.454 14.4298 19.896 14.0608 19.437H12.9898C13.5388 20.076 14.1868 20.895 14.7898 21.723C14.1868 22.524 13.5478 23.352 12.9808 24H13.9618C14.3758 23.496 14.8078 22.947 15.2488 22.362C15.6538 22.938 16.0408 23.505 16.3468 24H17.3368ZM20.1492 24.126C21.5982 24.126 22.2732 23.568 22.2732 21.696C22.2732 19.833 21.5892 19.311 20.1492 19.311C18.7182 19.311 18.0252 19.833 18.0252 21.696C18.0252 23.568 18.7092 24.126 20.1492 24.126ZM20.1492 20.04C21.0762 20.04 21.3732 20.283 21.3732 21.714C21.3732 23.082 21.0762 23.397 20.1492 23.397C19.2222 23.397 18.9252 23.082 18.9252 21.714C18.9252 20.283 19.2222 20.04 20.1492 20.04ZM24.3154 19.437C24.2434 20.805 23.9734 22.101 23.6314 23.244H22.8484L23.0554 25.215H23.7214V24H27.3844V25.215H28.0594L28.2574 23.244H27.4024V19.437H24.3154ZM26.5564 20.193V23.244H24.5224C24.7924 22.254 25.0264 21.12 25.1074 20.193H26.5564ZM31.9585 21.921V24H32.8135V19.437H31.9585V21.192H29.8345V19.437H28.9795V24H29.8345V21.921H31.9585ZM36.1101 24.126C37.5591 24.126 38.2341 23.568 38.2341 21.696C38.2341 19.833 37.5501 19.311 36.1101 19.311C34.6791 19.311 33.9861 19.833 33.9861 21.696C33.9861 23.568 34.6701 24.126 36.1101 24.126ZM36.1101 20.04C37.0371 20.04 37.3341 20.283 37.3341 21.714C37.3341 23.082 37.0371 23.397 36.1101 23.397C35.1831 23.397 34.8861 23.082 34.8861 21.714C34.8861 20.283 35.1831 20.04 36.1101 20.04ZM42.4184 24H43.2644V19.437H42.4184C41.7524 20.589 40.9964 21.795 40.2584 22.749V19.437H39.4034V24H40.2584C40.9964 23.046 41.7884 21.921 42.4184 20.814V24ZM40.0784 17.727C40.0784 18.546 40.5284 18.915 41.3474 18.915C42.1844 18.915 42.6164 18.546 42.6164 17.727H42.0224C42.0404 18.204 41.7344 18.303 41.3654 18.303C40.9244 18.303 40.7084 18.195 40.7084 17.727H40.0784Z" fill="white"/>
</svg>
