<svg width="45" height="45" viewBox="0 0 45 45" fill="none" xmlns="http://www.w3.org/2000/svg">
<circle cx="22.5002" cy="22.5002" r="17.0783" fill="#848484"/>
<path d="M22.5 45C25.9816 45 29.4156 44.1921 32.532 42.6397C35.6483 41.0874 38.3619 38.8331 40.4593 36.0541C42.5566 33.2752 43.9804 30.0474 44.6187 26.6249C45.2569 23.2023 45.0922 19.6783 44.1376 16.3302C43.1829 12.9821 41.4642 9.9012 39.1169 7.32996C36.7695 4.75873 33.8575 2.76731 30.6099 1.51241C27.3624 0.257506 23.8679 -0.226639 20.4015 0.0980695C16.9351 0.422778 13.5914 1.54748 10.6334 3.38368L13.5114 8.01993C15.752 6.62907 18.2848 5.77714 20.9105 5.53118C23.5362 5.28522 26.1831 5.65195 28.643 6.6025C31.103 7.55305 33.3087 9.0615 35.0868 11.0091C36.8648 12.9568 38.1667 15.2905 38.8898 17.8266C39.613 20.3627 39.7377 23.032 39.2543 25.6245C38.7708 28.217 37.6923 30.6619 36.1036 32.7669C34.515 34.8719 32.4595 36.5794 30.0989 37.7553C27.7384 38.9311 25.1372 39.5431 22.5 39.5431L22.5 45Z" fill="white"/>
<path d="M13.5737 20V13.484L10.9907 14.609L11.2607 15.347L12.6647 14.708V20H13.5737ZM19.1899 20V13.484L16.6069 14.609L16.8769 15.347L18.2809 14.708V20H19.1899ZM22.4931 18.893C22.0611 18.893 21.9171 18.965 21.9171 19.433C21.9171 19.937 22.0611 20.018 22.4931 20.018C22.9521 20.018 23.0871 19.937 23.0871 19.433C23.0871 18.965 22.9521 18.893 22.4931 18.893ZM26.5209 13.574C24.9909 13.574 24.2259 14.24 24.2259 16.778C24.2259 19.352 24.9909 20.126 26.5209 20.126C28.0599 20.126 28.8069 19.352 28.8069 16.778C28.8069 14.24 28.0509 13.574 26.5209 13.574ZM26.5119 19.307C25.5039 19.307 25.1529 18.821 25.1529 16.778C25.1529 14.672 25.5039 14.357 26.5119 14.357C27.5559 14.357 27.8889 14.672 27.8889 16.778C27.8889 18.821 27.5559 19.307 26.5119 19.307ZM32.1371 13.574C30.6071 13.574 29.8421 14.24 29.8421 16.778C29.8421 19.352 30.6071 20.126 32.1371 20.126C33.6761 20.126 34.4231 19.352 34.4231 16.778C34.4231 14.24 33.6671 13.574 32.1371 13.574ZM32.1281 19.307C31.1201 19.307 30.7691 18.821 30.7691 16.778C30.7691 14.672 31.1201 14.357 32.1281 14.357C33.1721 14.357 33.5051 14.672 33.5051 16.778C33.5051 18.821 33.1721 19.307 32.1281 19.307ZM13.5737 30V23.484L10.9907 24.609L11.2607 25.347L12.6647 24.708V30H13.5737ZM18.4789 29.37C17.4529 29.37 17.1469 29.055 17.1469 28.227C17.1469 27.363 17.5159 27.039 18.4789 27.039C19.4419 27.039 19.8109 27.363 19.8109 28.227C19.8109 29.055 19.5049 29.37 18.4789 29.37ZM18.4789 26.31C17.6329 26.31 17.2729 26.013 17.2729 25.275C17.2729 24.591 17.5789 24.339 18.4789 24.339C19.3789 24.339 19.6849 24.591 19.6849 25.275C19.6849 26.013 19.3339 26.31 18.4789 26.31ZM18.4789 30.126C20.0719 30.126 20.7739 29.658 20.7739 28.29C20.7739 27.39 20.5039 26.706 19.3159 26.652C20.4409 26.553 20.6299 25.923 20.6299 25.14C20.6299 24.087 20.0899 23.574 18.4789 23.574C16.8679 23.574 16.3369 24.087 16.3369 25.14C16.3369 25.923 16.5259 26.553 17.6509 26.652C16.4539 26.706 16.1839 27.39 16.1839 28.29C16.1839 29.658 16.8949 30.126 18.4789 30.126ZM22.4931 28.893C22.0611 28.893 21.9171 28.965 21.9171 29.433C21.9171 29.937 22.0611 30.018 22.4931 30.018C22.9521 30.018 23.0871 29.937 23.0871 29.433C23.0871 28.965 22.9521 28.893 22.4931 28.893ZM26.5209 23.574C24.9909 23.574 24.2259 24.24 24.2259 26.778C24.2259 29.352 24.9909 30.126 26.5209 30.126C28.0599 30.126 28.8069 29.352 28.8069 26.778C28.8069 24.24 28.0509 23.574 26.5209 23.574ZM26.5119 29.307C25.5039 29.307 25.1529 28.821 25.1529 26.778C25.1529 24.672 25.5039 24.357 26.5119 24.357C27.5559 24.357 27.8889 24.672 27.8889 26.778C27.8889 28.821 27.5559 29.307 26.5119 29.307ZM32.1371 23.574C30.6071 23.574 29.8421 24.24 29.8421 26.778C29.8421 29.352 30.6071 30.126 32.1371 30.126C33.6761 30.126 34.4231 29.352 34.4231 26.778C34.4231 24.24 33.6671 23.574 32.1371 23.574ZM32.1281 29.307C31.1201 29.307 30.7691 28.821 30.7691 26.778C30.7691 24.672 31.1201 24.357 32.1281 24.357C33.1721 24.357 33.5051 24.672 33.5051 26.778C33.5051 28.821 33.1721 29.307 32.1281 29.307Z" fill="black"/>
</svg>
