<svg width="45" height="45" viewBox="0 0 45 45" fill="none" xmlns="http://www.w3.org/2000/svg">
<circle cx="22.5002" cy="22.5002" r="17.0783" fill="#848484"/>
<path d="M5.78171e-06 22.5C5.43034e-06 26.5192 1.0766 30.465 3.11786 33.9273C5.15912 37.3895 8.09052 40.2418 11.6073 42.1875C15.1241 44.1333 19.0979 45.1015 23.1156 44.9916C27.1333 44.8816 31.0482 43.6975 34.4533 41.5622C37.8584 39.427 40.6294 36.4187 42.4782 32.8499C44.327 29.2812 45.1862 25.2824 44.9663 21.2692C44.7465 17.2561 43.4556 13.375 41.2281 10.0296C39.0005 6.68423 35.9174 3.99658 32.2995 2.2461L29.9228 7.15825C32.6633 8.48419 34.9986 10.52 36.686 13.0541C38.3733 15.5881 39.3511 18.5279 39.5176 21.5677C39.6841 24.6076 39.0333 27.6366 37.6329 30.3398C36.2325 33.043 34.1335 35.3217 31.5543 36.9391C28.975 38.5565 26.0096 39.4534 22.9663 39.5367C19.923 39.62 16.913 38.8866 14.2491 37.4128C11.5852 35.9389 9.36478 33.7784 7.81858 31.1558C6.27239 28.5333 5.4569 25.5444 5.4569 22.5L5.78171e-06 22.5Z" fill="white"/>
<path d="M14.5737 21V14.484L11.9907 15.609L12.2607 16.347L13.6647 15.708V21H14.5737ZM18.4709 18.057H19.2719C20.2889 18.057 20.6669 18.345 20.6669 19.2C20.6669 20.019 20.3519 20.316 19.0469 20.316C18.5069 20.316 17.8229 20.253 17.3639 20.118L17.1749 20.883C17.7239 21.009 18.5159 21.126 19.1639 21.126C20.8919 21.126 21.6569 20.667 21.6569 19.29C21.6569 18.39 21.3779 17.706 20.1899 17.652C21.3059 17.553 21.5309 16.923 21.5309 16.14C21.5309 15.069 20.9459 14.574 19.1999 14.574C18.4799 14.574 17.7599 14.7 17.2289 14.808L17.4269 15.591C17.8409 15.465 18.5429 15.384 19.0829 15.384C20.2709 15.384 20.5679 15.636 20.5679 16.293C20.5679 17.013 20.1899 17.292 19.2629 17.292H18.4709V18.057ZM23.4931 19.893C23.0611 19.893 22.9171 19.965 22.9171 20.433C22.9171 20.937 23.0611 21.018 23.4931 21.018C23.9521 21.018 24.0871 20.937 24.0871 20.433C24.0871 19.965 23.9521 19.893 23.4931 19.893ZM27.5209 14.574C25.9909 14.574 25.2259 15.24 25.2259 17.778C25.2259 20.352 25.9909 21.126 27.5209 21.126C29.0599 21.126 29.8069 20.352 29.8069 17.778C29.8069 15.24 29.0509 14.574 27.5209 14.574ZM27.5119 20.307C26.5039 20.307 26.1529 19.821 26.1529 17.778C26.1529 15.672 26.5039 15.357 27.5119 15.357C28.5559 15.357 28.8889 15.672 28.8889 17.778C28.8889 19.821 28.5559 20.307 27.5119 20.307ZM33.1371 14.574C31.6071 14.574 30.8421 15.24 30.8421 17.778C30.8421 20.352 31.6071 21.126 33.1371 21.126C34.6761 21.126 35.4231 20.352 35.4231 17.778C35.4231 15.24 34.6671 14.574 33.1371 14.574ZM33.1281 20.307C32.1201 20.307 31.7691 19.821 31.7691 17.778C31.7691 15.672 32.1201 15.357 33.1281 15.357C34.1721 15.357 34.5051 15.672 34.5051 17.778C34.5051 19.821 34.1721 20.307 33.1281 20.307ZM12.0357 25.645C12.3687 25.501 13.1067 25.402 13.6377 25.402C14.6187 25.402 15.0147 25.627 15.0147 26.437C15.0147 27.436 14.8167 27.724 11.5497 30.271V31H15.9507V30.217H12.7737C15.5547 28.228 15.9777 27.625 15.9777 26.374C15.9777 25.015 15.2397 24.574 13.7007 24.574C13.0527 24.574 12.3687 24.691 11.8287 24.844L12.0357 25.645ZM20.1899 31V24.484L17.6069 25.609L17.8769 26.347L19.2809 25.708V31H20.1899ZM23.4931 29.893C23.0611 29.893 22.9171 29.965 22.9171 30.433C22.9171 30.937 23.0611 31.018 23.4931 31.018C23.9521 31.018 24.0871 30.937 24.0871 30.433C24.0871 29.965 23.9521 29.893 23.4931 29.893ZM27.5209 24.574C25.9909 24.574 25.2259 25.24 25.2259 27.778C25.2259 30.352 25.9909 31.126 27.5209 31.126C29.0599 31.126 29.8069 30.352 29.8069 27.778C29.8069 25.24 29.0509 24.574 27.5209 24.574ZM27.5119 30.307C26.5039 30.307 26.1529 29.821 26.1529 27.778C26.1529 25.672 26.5039 25.357 27.5119 25.357C28.5559 25.357 28.8889 25.672 28.8889 27.778C28.8889 29.821 28.5559 30.307 27.5119 30.307ZM33.1371 24.574C31.6071 24.574 30.8421 25.24 30.8421 27.778C30.8421 30.352 31.6071 31.126 33.1371 31.126C34.6761 31.126 35.4231 30.352 35.4231 27.778C35.4231 25.24 34.6671 24.574 33.1371 24.574ZM33.1281 30.307C32.1201 30.307 31.7691 29.821 31.7691 27.778C31.7691 25.672 32.1201 25.357 33.1281 25.357C34.1721 25.357 34.5051 25.672 34.5051 27.778C34.5051 29.821 34.1721 30.307 33.1281 30.307Z" fill="black"/>
</svg>
