<svg width="12" height="12" viewBox="0 0 12 12" fill="none" xmlns="http://www.w3.org/2000/svg">
<path d="M11.25 3.75V1.81055C11.25 1.71203 11.2306 1.61449 11.1928 1.52348C11.1551 1.43248 11.0998 1.34979 11.0302 1.28016L9.96961 0.219609C9.82899 0.0790219 9.6383 3.00382e-05 9.43945 0L3.75 0C3.55109 0 3.36032 0.0790176 3.21967 0.21967C3.07902 0.360322 3 0.551088 3 0.75V11.25C3 11.4489 3.07902 11.6397 3.21967 11.7803C3.36032 11.921 3.55109 12 3.75 12H11.25C11.4489 12 11.6397 11.921 11.7803 11.7803C11.921 11.6397 12 11.4489 12 11.25V4.5C12 4.30109 11.921 4.11032 11.7803 3.96967C11.6397 3.82902 11.4489 3.75 11.25 3.75ZM6.75 10.125C6.75 10.2245 6.71049 10.3198 6.64017 10.3902C6.56984 10.4605 6.47446 10.5 6.375 10.5H5.625C5.52554 10.5 5.43016 10.4605 5.35984 10.3902C5.28951 10.3198 5.25 10.2245 5.25 10.125V9.375C5.25 9.27554 5.28951 9.18016 5.35984 9.10983C5.43016 9.03951 5.52554 9 5.625 9H6.375C6.47446 9 6.56984 9.03951 6.64017 9.10983C6.71049 9.18016 6.75 9.27554 6.75 9.375V10.125ZM6.75 7.125C6.75 7.22446 6.71049 7.31984 6.64017 7.39017C6.56984 7.46049 6.47446 7.5 6.375 7.5H5.625C5.52554 7.5 5.43016 7.46049 5.35984 7.39017C5.28951 7.31984 5.25 7.22446 5.25 7.125V6.375C5.25 6.27554 5.28951 6.18016 5.35984 6.10983C5.43016 6.03951 5.52554 6 5.625 6H6.375C6.47446 6 6.56984 6.03951 6.64017 6.10983C6.71049 6.18016 6.75 6.27554 6.75 6.375V7.125ZM9.75 10.125C9.75 10.2245 9.71049 10.3198 9.64017 10.3902C9.56984 10.4605 9.47446 10.5 9.375 10.5H8.625C8.52554 10.5 8.43016 10.4605 8.35983 10.3902C8.28951 10.3198 8.25 10.2245 8.25 10.125V9.375C8.25 9.27554 8.28951 9.18016 8.35983 9.10983C8.43016 9.03951 8.52554 9 8.625 9H9.375C9.47446 9 9.56984 9.03951 9.64017 9.10983C9.71049 9.18016 9.75 9.27554 9.75 9.375V10.125ZM9.75 7.125C9.75 7.22446 9.71049 7.31984 9.64017 7.39017C9.56984 7.46049 9.47446 7.5 9.375 7.5H8.625C8.52554 7.5 8.43016 7.46049 8.35983 7.39017C8.28951 7.31984 8.25 7.22446 8.25 7.125V6.375C8.25 6.27554 8.28951 6.18016 8.35983 6.10983C8.43016 6.03951 8.52554 6 8.625 6H9.375C9.47446 6 9.56984 6.03951 9.64017 6.10983C9.71049 6.18016 9.75 6.27554 9.75 6.375V7.125ZM9.75 4.5H4.5V1.5H8.25V2.625C8.25 2.72446 8.28951 2.81984 8.35983 2.89016C8.43016 2.96049 8.52554 3 8.625 3H9.75V4.5ZM1.5 3H0.75C0.551088 3 0.360322 3.07902 0.21967 3.21967C0.0790176 3.36032 0 3.55109 0 3.75L0 11.25C0 11.4489 0.0790176 11.6397 0.21967 11.7803C0.360322 11.921 0.551088 12 0.75 12H1.5C1.69891 12 1.88968 11.921 2.03033 11.7803C2.17098 11.6397 2.25 11.4489 2.25 11.25V3.75C2.25 3.55109 2.17098 3.36032 2.03033 3.21967C1.88968 3.07902 1.69891 3 1.5 3Z" fill="white"/>
</svg>
