<svg width="90" height="93" viewBox="0 0 90 93" fill="none" xmlns="http://www.w3.org/2000/svg">
<path fill-rule="evenodd" clip-rule="evenodd" d="M32.8583 9.5415V0.606749H30.8936V7.48069L30.6452 7.22015L24.3423 0.608913H23.3033L0.943454 24.6746L0.155762 24.6743L23.0097 0.0678711H25.1776L30.6452 5.82464V0.133488H34.0099V9.36749L45.9756 21.966L47.2639 23.3223V24.652L34.0099 10.7498L32.8583 9.5415Z" fill="white" stroke="white" stroke-width="0.5669" stroke-miterlimit="22.9256"/>
<path fill-rule="evenodd" clip-rule="evenodd" d="M6.35449 34.1213V25.2942H7.35729C9.20705 25.2942 11.2495 25.3163 13.1877 25.5093C15.1757 25.7071 17.0095 26.09 18.3383 26.8195C19.6882 27.5605 20.7837 28.6371 21.5343 29.9689C22.2572 31.2517 22.6539 32.7621 22.6419 34.4263C22.6291 36.2085 22.1857 37.8468 21.3821 39.2211C20.5688 40.6121 19.3914 41.7293 17.9208 42.4508C15.8273 43.4781 12.5633 43.4081 9.48985 43.342C8.84813 43.3283 8.21653 43.3146 7.35729 43.3146H6.35449V34.1213ZM8.3601 27.3408V41.282C8.72528 41.2884 9.12563 41.2971 9.52887 41.3057C12.3691 41.3668 15.3853 41.4315 17.051 40.614C18.1627 40.0686 19.0522 39.2247 19.6663 38.1749C20.2897 37.1084 20.6339 35.8252 20.644 34.4181C20.6534 33.1207 20.3521 31.9576 19.8028 30.9827C19.2421 29.9876 18.4149 29.1783 17.3901 28.6159C16.3213 28.0292 14.7443 27.711 12.9995 27.5374C11.5272 27.3906 9.90802 27.3504 8.3601 27.3408Z" fill="white"/>
<path fill-rule="evenodd" clip-rule="evenodd" d="M6.35449 50.1016V41.4661H7.35729C9.20705 41.4661 11.2495 41.4882 13.1877 41.6812C15.1757 41.879 17.0095 42.0703 18.3383 42.7996C19.6882 43.5406 20.7837 44.6171 21.5343 45.9489C22.2572 47.2317 22.6539 48.7421 22.6419 50.4063C22.6291 52.1886 22.1857 53.8269 21.3821 55.2012C20.5688 56.5921 19.3914 57.7093 17.9208 58.4309C15.8273 59.4582 12.5633 59.3882 9.48985 59.3221C8.84813 59.3084 8.21653 59.2947 7.35729 59.2947H6.35449V50.1016ZM8.3601 43.5129V57.2625C8.72528 57.269 9.12563 57.2776 9.52887 57.2863C12.3691 57.3473 15.3853 57.412 17.051 56.5946C18.1627 56.0492 19.0522 55.2055 19.6663 54.1554C20.2897 53.089 20.6339 51.8057 20.644 50.3987C20.6534 49.1015 20.3521 47.9381 19.8028 46.9632C19.2421 45.9679 18.4149 45.1589 17.3901 44.5965C16.3213 44.0095 14.7443 43.8151 12.9995 43.6413C11.5272 43.4944 9.90802 43.5225 8.3601 43.5129Z" fill="white"/>
<path fill-rule="evenodd" clip-rule="evenodd" d="M23.1562 34.1213V25.2942H24.1591C26.0088 25.2942 28.0513 25.3163 29.9894 25.5093C31.9772 25.7071 33.8113 26.09 35.14 26.8195C36.4899 27.5605 37.5855 28.6371 38.3361 29.9689C39.059 31.2517 39.4557 32.7621 39.4437 34.4263C39.4309 36.2085 38.9874 37.8468 38.1838 39.2211C37.3706 40.6121 36.1932 41.7293 34.7226 42.4508C32.629 43.4781 29.365 43.4081 26.2916 43.342C25.6499 43.3283 25.0183 43.3146 24.1591 43.3146H23.1562V34.1213ZM25.1619 27.3408V41.282C25.527 41.2884 25.9274 41.2971 26.3306 41.3057C29.1709 41.3668 32.187 41.4315 33.853 40.614C34.9646 40.0686 35.8542 39.2247 36.4682 38.1749C37.0917 37.1084 37.4359 35.8252 37.446 34.4181C37.4554 33.1207 37.154 31.9576 36.6048 30.9827C36.0441 29.9876 35.2169 29.1783 34.1921 28.6159C33.1233 28.0292 31.5463 27.711 29.8015 27.5374C28.329 27.3906 26.7098 27.3504 25.1619 27.3408Z" fill="white"/>
<path fill-rule="evenodd" clip-rule="evenodd" d="M23.1562 50.1016V41.4661H24.1591C26.0088 41.4661 28.0513 41.4882 29.9894 41.6812C31.9772 41.879 33.8113 42.0703 35.14 42.7996C36.4899 43.5406 37.5855 44.6171 38.3361 45.9489C39.059 47.2317 39.4557 48.7421 39.4437 50.4063C39.4309 52.1886 38.9874 53.8269 38.1838 55.2012C37.3706 56.5921 36.1932 57.7093 34.7226 58.4309C32.629 59.4582 29.365 59.3882 26.2916 59.3221C25.6499 59.3084 25.0183 59.2947 24.1591 59.2947H23.1562V50.1016ZM25.1619 43.5129V57.2625C25.527 57.269 25.9274 57.2776 26.3306 57.2863C29.1709 57.3473 32.187 57.412 33.853 56.5946C34.9646 56.0492 35.8542 55.2055 36.4682 54.1554C37.0917 53.089 37.4359 51.8057 37.446 50.3987C37.4554 49.1015 37.154 47.9381 36.6048 46.9632C36.0441 45.9679 35.2169 45.1589 34.1921 44.5965C33.1233 44.0095 31.5463 43.8151 29.8015 43.6413C28.329 43.4944 26.7098 43.5225 25.1619 43.5129Z" fill="white"/>
<path fill-rule="evenodd" clip-rule="evenodd" d="M23.478 42.8591H39.6247V59.4889H23.478V59.2579H39.128V43.0901H23.478V42.8591Z" fill="white" stroke="white" stroke-width="0.5669" stroke-miterlimit="22.9256"/>
<path fill-rule="evenodd" clip-rule="evenodd" d="M56.1223 57.0332L58.5955 51.0728H62.2598V51.3045H61.9659C61.7017 51.3045 61.4878 51.3521 61.3283 51.4478C61.2165 51.5115 61.1279 51.6158 61.0619 51.766C61.014 51.8751 60.9889 52.1568 60.9889 52.6135V58.5717C60.9889 59.0375 61.014 59.3283 61.0619 59.4444C61.112 59.5603 61.2098 59.6624 61.3625 59.749C61.5128 59.8374 61.7132 59.8807 61.9659 59.8807H62.2598V60.1124H57.5457V59.8807H57.8393C58.1036 59.8807 58.3175 59.8331 58.477 59.7398C58.5885 59.6761 58.6774 59.5694 58.7434 59.4173C58.7913 59.3105 58.8161 59.0286 58.8161 58.5719V51.8821L55.3363 60.1126H55.1768L51.6498 51.941V58.2991C51.6498 58.7467 51.6611 59.0216 51.684 59.124C51.7433 59.3466 51.8685 59.5285 52.062 59.6694C52.2556 59.8102 52.5608 59.8807 52.9752 59.8807V60.1124H49.8733V59.8807H49.9689C50.1693 59.8852 50.356 59.8535 50.5292 59.7831C50.7046 59.7127 50.8344 59.6194 50.9231 59.5036C51.0141 59.3877 51.0825 59.224 51.1302 59.0127C51.1394 58.9628 51.144 58.7356 51.144 58.3265V52.6137C51.144 52.1479 51.1211 51.8571 51.071 51.7434C51.0233 51.6276 50.9228 51.5252 50.7703 51.4365C50.6179 51.3478 50.415 51.3048 50.1623 51.3048H49.873V51.0731H53.567L56.1223 57.0332ZM65.6531 60.3782L63.6377 55.7494C63.3349 55.0449 63.1116 54.6111 62.9682 54.4496C62.8225 54.2883 62.6493 54.177 62.4446 54.1133V53.8816H65.7649V54.1133C65.5486 54.1225 65.3937 54.1655 65.3048 54.2405C65.2159 54.3176 65.1728 54.4087 65.1728 54.5176C65.1728 54.6859 65.2822 55.0221 65.5052 55.5242L66.5733 57.9807L67.302 56.0878C67.5638 55.4108 67.6937 54.938 67.6937 54.6721C67.6937 54.5063 67.639 54.3746 67.5321 54.2746C67.4227 54.177 67.2293 54.1225 66.9537 54.1133V53.8816H69.026V54.1133C68.821 54.1359 68.6548 54.2155 68.525 54.352C68.3951 54.4883 68.1812 54.9541 67.8782 55.7494L66.1019 60.3715C65.6534 61.5235 65.3207 62.2326 65.1022 62.4984C64.7949 62.8709 64.4124 63.0575 63.9499 63.0575C63.5808 63.0575 63.2804 62.9507 63.0526 62.7395C62.8225 62.5282 62.7086 62.2737 62.7086 61.9759C62.7086 61.7168 62.7883 61.5031 62.9454 61.3351C63.1048 61.1647 63.2983 61.0805 63.5307 61.0805C63.7538 61.0805 63.9337 61.151 64.0703 61.2942C64.2047 61.4372 64.2753 61.66 64.2799 61.96C64.2844 62.1304 64.3027 62.2395 64.3345 62.2871C64.3733 62.3371 64.4256 62.3621 64.494 62.3621C64.5988 62.3621 64.7127 62.2987 64.8334 62.1691C65.011 61.9804 65.2183 61.5533 65.4597 60.8851L65.6531 60.3782ZM72.4964 56.7469C73.2685 56.9423 73.7582 57.1923 73.9678 57.4968C74.1749 57.8013 74.2797 58.1217 74.2797 58.4558C74.2797 58.9716 74.061 59.4057 73.6238 59.7603C73.1887 60.1124 72.5624 60.2898 71.7473 60.2898C70.6313 60.2898 69.8274 59.8581 69.3331 58.9923L69.5403 58.8719C70.0527 59.381 70.5742 59.6353 71.1049 59.6353C71.5011 59.6353 71.8176 59.5148 72.0522 59.2718C72.289 59.031 72.4076 58.7061 72.4076 58.297C72.4076 57.5245 71.9475 57.1108 71.0275 57.0584V56.6222C71.8383 56.6222 72.2435 56.2155 72.2435 55.4043C72.2435 55.0269 72.1503 54.7294 71.9658 54.5111C71.7812 54.2907 71.5286 54.1816 71.212 54.1816C70.538 54.1816 70.1076 54.6724 69.9207 55.654H69.661L69.7566 53.7042H70.0163C70.0914 53.8862 70.1849 53.977 70.2964 53.977C70.342 53.977 70.4513 53.9542 70.6245 53.9088C71.1097 53.7725 71.5331 53.7042 71.893 53.7042C72.5034 53.7042 73.0021 53.8429 73.387 54.1201C73.7719 54.3996 73.9654 54.7745 73.9654 55.2449C73.9654 55.9994 73.4759 56.4993 72.4964 56.7469ZM80.3989 56.7719H76.9692C77.0101 57.5968 77.231 58.2489 77.6319 58.7284C77.9392 59.0964 78.3083 59.2805 78.7409 59.2805C79.0095 59.2805 79.2511 59.2055 79.4696 59.0579C79.688 58.9104 79.9227 58.6421 80.171 58.258L80.3987 58.408C80.0617 59.0921 79.6859 59.5783 79.2783 59.8624C78.8683 60.1465 78.3947 60.2895 77.8549 60.2895C76.9304 60.2895 76.2289 59.935 75.753 59.2262C75.3704 58.6558 75.1789 57.9468 75.1789 57.0993C75.1789 56.0631 75.4615 55.2382 76.024 54.6248C76.5864 54.0112 77.2469 53.7045 78.0031 53.7045C78.6339 53.7045 79.1827 53.9612 79.6473 54.477C80.112 54.9928 80.3625 55.7586 80.3989 56.7719ZM78.7592 56.3357C78.7592 55.622 78.7204 55.1312 78.6431 54.8654C78.5634 54.5996 78.4427 54.3974 78.2786 54.2609C78.1852 54.1813 78.0601 54.1405 77.9028 54.1405C77.6728 54.1405 77.4839 54.2542 77.3358 54.4791C77.074 54.8745 76.9417 55.4153 76.9417 56.104V56.3357H78.7592ZM84.6895 52.9272C83.9789 52.9272 83.4073 52.8159 82.9725 52.5931C82.5399 52.3705 82.3233 52.0705 82.3233 51.6932C82.3233 51.4932 82.3802 51.3341 82.4965 51.2182C82.6126 51.1024 82.7492 51.0457 82.9111 51.0457C83.2618 51.0457 83.5215 51.3228 83.6899 51.8751C83.765 52.1251 83.8676 52.3001 83.9996 52.3977C84.1316 52.4955 84.3321 52.5455 84.6033 52.5455C84.9678 52.5455 85.2 52.4955 85.3023 52.3977C85.4047 52.3001 85.4914 52.1364 85.562 51.909C85.7441 51.3341 86.0105 51.0457 86.3613 51.0457C86.5275 51.0457 86.6665 51.1024 86.7826 51.2161C86.8987 51.3298 86.9558 51.4886 86.9558 51.6932C86.9558 52.0703 86.7532 52.3703 86.3499 52.5931C85.9443 52.8159 85.3907 52.9272 84.6895 52.9272ZM84.9331 60.1124V59.8807C85.3339 59.8807 85.5343 59.5761 85.5343 58.9673V55.8997L83.7443 58.9673C83.7489 59.5627 83.9539 59.8672 84.3593 59.8807V60.1124H81.1755V59.8807C81.4282 59.8807 81.606 59.8081 81.7129 59.6648C81.8199 59.5216 81.8724 59.2716 81.8724 58.9125V55.0541C81.8724 54.427 81.6402 54.1133 81.1755 54.1133V53.8816H84.3593V54.1133C84.1247 54.1225 83.963 54.1883 83.8765 54.3155C83.7879 54.4404 83.7445 54.6858 83.7445 55.0538V58.1078L85.5345 55.0127C85.53 54.6765 85.482 54.4424 85.3888 54.3107C85.2932 54.1789 85.1429 54.1131 84.9333 54.1131V53.8814H88.1171V54.1131C87.8757 54.1176 87.6979 54.1789 87.5818 54.2948C87.4657 54.413 87.4065 54.638 87.4065 54.9719V58.9394C87.4065 59.3144 87.4587 59.5644 87.5635 59.6918C87.6683 59.8167 87.8528 59.8804 88.1168 59.8804V60.1121H84.9331V60.1124Z" fill="white"/>
<path fill-rule="evenodd" clip-rule="evenodd" d="M9.00513 70.6848C9.83305 70.8785 10.4165 71.1143 10.7506 71.3895C11.2311 71.7815 11.4715 72.2901 11.4715 72.9155C11.4715 73.5738 11.2092 74.1202 10.6829 74.5516C10.0383 75.0734 9.10124 75.3335 7.87345 75.3335H3.46045V75.1087C3.86249 75.1087 4.13541 75.0713 4.27753 74.9943C4.42182 74.9196 4.52227 74.8203 4.57912 74.6992C4.63813 74.578 4.66632 74.2786 4.66632 73.8007V68.106C4.66632 67.6281 4.63789 67.3287 4.57912 67.2054C4.52227 67.0821 4.41965 66.9828 4.27536 66.908C4.1289 66.8355 3.85815 66.798 3.46045 66.798V66.5732H7.62438C8.62044 66.5732 9.32406 66.6636 9.7391 66.8419C10.1541 67.0203 10.4798 67.2866 10.72 67.6414C10.9582 67.9959 11.0784 68.3747 11.0784 68.7732C11.0784 69.196 10.9255 69.5705 10.6195 69.9007C10.3139 70.229 9.77644 70.491 9.00513 70.6848ZM6.67192 70.5107C7.28353 70.5107 7.73591 70.4425 8.02642 70.3038C8.31692 70.1673 8.53998 69.9735 8.69487 69.7226C8.85 69.4738 8.92853 69.1544 8.92853 68.7667C8.92853 68.3793 8.85217 68.062 8.69921 67.8154C8.54624 67.5666 8.32776 67.3794 8.04159 67.2493C7.75759 67.1195 7.30111 67.0578 6.67168 67.0621V70.5107H6.67192ZM6.67192 71.0128V73.8183V74.142C6.67192 74.3733 6.72877 74.5494 6.84464 74.6663C6.9605 74.7852 7.13081 74.8446 7.35796 74.8446C7.69448 74.8446 8.00257 74.7674 8.28633 74.6155C8.57033 74.4636 8.78665 74.2435 8.93744 73.9529C9.08823 73.6645 9.1646 73.3407 9.1646 72.9862C9.1646 72.5788 9.07932 72.2132 8.91118 71.8894C8.74064 71.5657 8.4918 71.3366 8.15962 71.2046C7.82769 71.0725 7.3317 71.0085 6.67192 71.0128ZM20.8285 66.798C20.3587 66.798 20.055 66.8751 19.9196 67.027C19.7821 67.1811 19.7144 67.4652 19.7144 67.8815V73.9726C19.7144 74.4415 19.7821 74.7477 19.9177 74.8864C20.0552 75.0251 20.3655 75.1001 20.855 75.1087V75.3335H16.4901V75.1087C16.8375 75.1087 17.0844 75.0801 17.2263 75.0208C17.3682 74.9614 17.471 74.8646 17.5341 74.7302C17.5975 74.5958 17.6302 74.3557 17.6302 74.0122V67.1417H15.5461V69.7577C15.5461 70.852 15.5199 71.6868 15.4652 72.2593C15.4127 72.8319 15.2643 73.3758 15.0239 73.8911C14.7813 74.4064 14.4713 74.7939 14.0912 75.0515C13.711 75.3092 13.2917 75.439 12.8284 75.439C12.411 75.439 12.0856 75.3289 11.8541 75.1066C11.6247 74.884 11.5089 74.6088 11.5089 74.2829C11.5089 74.0098 11.5787 73.7875 11.7209 73.6135C11.863 73.4395 12.066 73.3515 12.3327 73.3515C12.8241 73.3515 13.0973 73.6599 13.1476 74.2742C13.1695 74.5494 13.2765 74.686 13.4687 74.686C13.7373 74.686 14.0213 74.5033 14.3251 74.1399C14.6286 73.7765 14.8297 73.2744 14.928 72.6381C15.0263 71.9995 15.0745 71.0768 15.0745 69.8656V68.2117C15.0745 67.7382 15.046 67.4234 14.987 67.2647C14.9302 67.1061 14.8189 66.9895 14.6548 66.9191C14.491 66.8465 14.1984 66.8068 13.7766 66.798V66.5732H20.8285V66.798ZM26.6374 72.8362H23.5986L23.2207 73.6906C23.1005 73.9769 23.0417 74.2149 23.0417 74.4019C23.0417 74.6506 23.14 74.8335 23.3344 74.9523C23.4503 75.0205 23.7343 75.0734 24.1864 75.1085V75.3332H21.3006V75.1085C21.6109 75.06 21.8686 74.928 22.0673 74.7143C22.2682 74.4985 22.5173 74.0536 22.8102 73.3799L25.9123 66.4014H26.0347L29.1652 73.5736C29.4644 74.2608 29.7092 74.6946 29.9014 74.873C30.0478 75.0095 30.2509 75.0866 30.5173 75.1085V75.3332H26.3185V75.1085H26.4909C26.8275 75.1085 27.0654 75.06 27.2011 74.9631C27.295 74.8948 27.3408 74.7934 27.3408 74.6636C27.3408 74.5843 27.3299 74.5028 27.3037 74.4192C27.295 74.3817 27.2317 74.2165 27.1115 73.9281L26.6374 72.8362ZM26.4322 72.3605L25.1367 69.3767L23.8106 72.3605H26.4322ZM32.2498 66.5735H39.4197V66.7982C38.8931 66.8157 38.559 66.8972 38.4147 67.0405C38.2726 67.1859 38.2006 67.4964 38.2006 67.9721V73.8409C38.2006 74.2108 38.229 74.4684 38.2837 74.6139C38.3384 74.7593 38.4586 74.878 38.6465 74.9705C38.8341 75.0631 39.0921 75.1092 39.4197 75.1092V77.8839H39.1969C39.1468 77.1287 38.8714 76.5141 38.3776 76.043C37.8816 75.5695 37.2024 75.334 36.3393 75.334H33.9755C33.082 75.334 32.3654 75.5541 31.8258 75.9947C31.2841 76.4353 30.9716 77.065 30.8864 77.8841H30.6635V75.1087C31.7121 74.8886 32.4637 74.1642 32.918 72.9376C33.3725 71.7087 33.5997 70.0661 33.5997 68.0094C33.5997 67.5116 33.5144 67.1878 33.3463 67.0337C33.1757 66.8818 32.811 66.8025 32.2495 66.7982V66.5735H32.2498ZM36.3393 67.1414H34.1634V67.8901C34.1634 68.9429 34.0935 69.9668 33.9514 70.9665C33.8117 71.9663 33.6194 72.7501 33.3769 73.3205C33.1321 73.8909 32.8089 74.373 32.4025 74.765H35.4892C35.9066 74.765 36.1533 74.7364 36.2277 74.6771C36.3019 74.6199 36.339 74.4305 36.339 74.1134V67.1414H36.3393ZM46.3143 68.0091C46.31 67.5356 46.2531 67.214 46.1462 67.0467C46.0368 66.8816 45.766 66.798 45.3312 66.798H45.0429V66.5732H49.6963V66.798H49.395C48.9929 66.798 48.7241 66.8773 48.5955 67.0335C48.4644 67.1897 48.3989 67.5332 48.3989 68.0663V73.8402C48.3989 74.3798 48.4644 74.7254 48.5979 74.8795C48.7311 75.0314 48.9975 75.1085 49.3952 75.1085H49.6965V75.3332H45.0431V75.1085H45.3315C45.7357 75.1085 45.9999 75.027 46.1266 74.8662C46.2512 74.7033 46.3145 74.362 46.3145 73.8399V69.0662L43.2473 73.9284C43.2473 74.349 43.2977 74.6485 43.4003 74.8335C43.5029 75.0165 43.7804 75.1087 44.2304 75.1087H44.532V75.3335H39.8786V75.1087H40.1669C40.5733 75.1087 40.8421 75.0273 40.971 74.8665C41.0999 74.7035 41.1632 74.3622 41.1632 73.8402V68.0663C41.1632 67.5334 41.1107 67.1897 41.0081 67.0335C40.9055 66.8773 40.6258 66.798 40.1669 66.798H39.8786V66.5732H44.532V66.798H44.2304C43.8392 66.798 43.5771 66.884 43.4461 67.0556C43.3129 67.2275 43.2473 67.5642 43.2473 68.0663V72.8734L46.3143 68.0091ZM56.1277 72.3495L58.5002 66.5732H62.0151V66.798H61.7333C61.4799 66.798 61.2747 66.8443 61.1217 66.9366C61.0147 66.9984 60.9295 67.0996 60.8661 67.245C60.8204 67.3508 60.7963 67.6238 60.7963 68.0666V73.8404C60.7963 74.2918 60.8204 74.5737 60.8661 74.686C60.9143 74.7982 61.0082 74.8972 61.1545 74.9811C61.2985 75.0669 61.4907 75.1087 61.7333 75.1087H62.0151V75.3335H57.493V75.1087H57.7749C58.0283 75.1087 58.2335 75.0624 58.3865 74.9722C58.4934 74.9105 58.5787 74.8071 58.642 74.6595C58.6878 74.5559 58.7119 74.2829 58.7119 73.8404V67.3573L55.3737 75.3332H55.2208L51.8368 67.4145V73.576C51.8368 74.0098 51.8479 74.2762 51.8696 74.3754C51.9264 74.5913 52.0466 74.7674 52.2323 74.904C52.4181 75.0405 52.7107 75.1087 53.1084 75.1087V75.3335H50.133V75.1087H50.2248C50.417 75.1131 50.5963 75.0823 50.7622 75.0141C50.9306 74.9458 51.0549 74.8554 51.1402 74.7432C51.2274 74.6309 51.2931 74.4723 51.3389 74.2675C51.3476 74.2189 51.3521 73.9988 51.3521 73.6024V68.0663C51.3521 67.6149 51.3302 67.333 51.2823 67.2229C51.2363 67.1107 51.1404 67.0114 50.994 66.9256C50.8475 66.8398 50.6531 66.798 50.4105 66.798H50.133V66.5732H53.6764L56.1277 72.3495ZM68.8818 68.0091C68.8775 67.5356 68.8206 67.214 68.7137 67.0467C68.6045 66.8816 68.3335 66.798 67.8987 66.798H67.6104V66.5732H72.2636V66.798H71.9622C71.5602 66.798 71.2916 66.8773 71.1627 67.0335C71.0317 67.1897 70.9662 67.5332 70.9662 68.0663V73.8402C70.9662 74.3798 71.0317 74.7254 71.1651 74.8795C71.2983 75.0314 71.5648 75.1085 71.9625 75.1085H72.2638V75.3332H67.6106V75.1085H67.899C68.3032 75.1085 68.5674 75.027 68.6941 74.8662C68.8187 74.7033 68.882 74.362 68.882 73.8399V69.0662L65.8148 73.9284C65.8148 74.349 65.8652 74.6485 65.9678 74.8335C66.0704 75.0165 66.3479 75.1087 66.7979 75.1087H67.0992V75.3335H62.4461V75.1087H62.7344C63.1408 75.1087 63.4096 75.0273 63.5383 74.8665C63.6671 74.7035 63.7305 74.3622 63.7305 73.8402V68.0663C63.7305 67.5334 63.678 67.1897 63.5754 67.0335C63.4727 66.8773 63.1931 66.798 62.7342 66.798H62.4458V66.5732H67.099V66.798H66.7977C66.4067 66.798 66.1444 66.884 66.0133 67.0556C65.8801 67.2275 65.8146 67.5642 65.8146 68.0663V72.8734L68.8818 68.0091ZM75.984 71.3695V73.8007C75.984 74.2786 76.0125 74.578 76.0715 74.7014C76.1283 74.8247 76.2309 74.9237 76.3796 74.9987C76.526 75.0715 76.797 75.1087 77.1901 75.1087V75.3335H72.7728V75.1087C73.1748 75.1087 73.4478 75.0713 73.5899 74.9943C73.7339 74.9196 73.8346 74.8203 73.8915 74.6992C73.9505 74.578 73.9787 74.2786 73.9787 73.8007V68.106C73.9787 67.6281 73.9502 67.3287 73.8915 67.2054C73.8346 67.0821 73.7342 66.9828 73.5877 66.908C73.4413 66.8355 73.1705 66.798 72.7728 66.798V66.5732H76.561C77.8083 66.5732 78.7041 66.798 79.2458 67.2448C79.7898 67.694 80.0608 68.2533 80.0608 68.9251C80.0608 69.4955 79.8859 69.9822 79.5342 70.3874C79.1847 70.7927 78.7019 71.0679 78.0858 71.2155C77.6726 71.3191 76.9714 71.3695 75.984 71.3695ZM75.984 67.0756V70.8677C76.1262 70.8766 76.2331 70.8809 76.3051 70.8809C76.8271 70.8809 77.2313 70.7247 77.5132 70.4117C77.795 70.099 77.9369 69.6144 77.9369 68.9583C77.9369 68.3064 77.795 67.8308 77.5132 67.5291C77.2313 67.2275 76.8076 67.0756 76.2483 67.0756H75.984ZM84.2136 72.8362L84.6877 73.9284C84.8079 74.2168 84.8712 74.3819 84.8799 74.4194C84.9062 74.5031 84.917 74.5845 84.917 74.6639C84.917 74.7939 84.8712 74.8951 84.7773 74.9633C84.6419 75.0602 84.4037 75.1087 84.0674 75.1087H83.8947V75.3335H88.0935V75.1087C87.8271 75.0869 87.6238 75.0097 87.4776 74.8732C87.2854 74.6949 87.0406 74.261 86.7412 73.5738L83.6107 66.4016H83.4883L80.3862 73.3801C80.0933 74.0538 79.8445 74.4987 79.6433 74.7146C79.4446 74.9282 79.1866 75.0602 78.8763 75.1087V75.3335H81.7624V75.1087C81.3102 75.0737 81.0262 75.0208 80.9104 74.9525C80.716 74.8335 80.6177 74.6509 80.6177 74.4021C80.6177 74.2149 80.6767 73.9772 80.7967 73.6909L81.1746 72.8364H84.2136V72.8362ZM84.0081 72.3605H81.3866L82.7127 69.3767L84.0081 72.3605Z" fill="white"/>
<path fill-rule="evenodd" clip-rule="evenodd" d="M8.89409 86.0172C9.70539 86.2052 10.277 86.4337 10.6046 86.7008C11.0755 87.081 11.3111 87.5745 11.3111 88.1811C11.3111 88.8197 11.0541 89.3495 10.5384 89.7682C9.90677 90.2744 8.98852 90.5265 7.7853 90.5265H3.46094V90.3088C3.85478 90.3088 4.12241 90.2725 4.26164 90.1977C4.40304 90.1251 4.50132 90.029 4.55696 89.9114C4.61477 89.7939 4.64248 89.5036 4.64248 89.0399V83.516C4.64248 83.0526 4.61453 82.762 4.55696 82.6424C4.50132 82.5227 4.40063 82.4265 4.25947 82.3539C4.1159 82.2835 3.85069 82.2472 3.46094 82.2472V82.0294H7.54104C8.51711 82.0294 9.20652 82.1169 9.61337 82.29C10.0202 82.463 10.3392 82.7214 10.5745 83.0654C10.8079 83.4093 10.9255 83.7766 10.9255 84.1633C10.9255 84.5734 10.7756 84.9366 10.476 85.2569C10.1763 85.5749 9.64974 85.829 8.89409 86.0172ZM6.60761 85.8482C7.20693 85.8482 7.65016 85.7819 7.93489 85.6475C8.21961 85.5151 8.43785 85.3271 8.58985 85.0836C8.74185 84.8423 8.81893 84.5325 8.81893 84.1566C8.81893 83.7807 8.74402 83.473 8.59419 83.2339C8.44436 82.9926 8.23021 82.8111 7.94982 82.6849C7.6716 82.5589 7.22404 82.4991 6.60761 82.5034V85.8482ZM6.60761 86.3354V89.0567V89.3706C6.60761 89.5949 6.66326 89.7658 6.77671 89.879C6.89017 89.9944 7.0571 90.0521 7.27968 90.0521C7.60945 90.0521 7.91128 89.9773 8.1895 89.83C8.46772 89.6826 8.6797 89.4689 8.82736 89.187C8.97503 88.9072 9.04994 88.5931 9.04994 88.2494C9.04994 87.8542 8.96636 87.4995 8.80159 87.1856C8.63466 86.8714 8.39064 86.6493 8.06521 86.5212C7.74025 86.3929 7.25415 86.3311 6.60761 86.3354ZM15.2542 85.8867H16.3781C17.5898 85.8867 18.4697 86.1004 19.0177 86.5253C19.5658 86.9524 19.8399 87.5206 19.8399 88.2321C19.8399 88.7169 19.7007 89.1334 19.4224 89.486C19.1442 89.8365 18.7952 90.097 18.3755 90.2701C17.9559 90.441 17.3438 90.5263 16.5366 90.5263H11.9789V90.3085C12.5054 90.3001 12.8415 90.2294 12.9894 90.0948C13.137 89.9602 13.2119 89.6697 13.2119 89.219V83.5797C13.2119 82.9709 13.1498 82.5972 13.0257 82.4626C12.9036 82.328 12.5763 82.2554 12.0432 82.247V82.0292H16.4232V82.247C16.0207 82.2513 15.753 82.2897 15.6225 82.3602C15.4898 82.4328 15.3956 82.5226 15.3399 82.6272C15.2821 82.732 15.2544 82.9947 15.2544 83.4134V85.8867H15.2542ZM15.2542 86.4378V89.001C15.2542 89.4048 15.3098 89.691 15.4233 89.8554C15.5367 90.0198 15.7444 90.1033 16.0505 90.1033C16.5386 90.1033 16.9069 89.9388 17.1552 89.6076C17.4036 89.2786 17.5276 88.8664 17.5276 88.3729C17.5276 87.8965 17.4142 87.4971 17.1894 87.1745C16.9647 86.8498 16.712 86.6469 16.4338 86.5635C16.1575 86.4806 15.7636 86.4378 15.2542 86.4378ZM24.1168 90.3083H23.8407C23.5837 90.3083 23.3826 90.2612 23.2392 90.1674C23.0938 90.0713 23.0058 89.9667 22.9716 89.8514C22.9396 89.736 22.9225 89.4776 22.9225 89.0781V83.4773C22.9225 83.0822 22.9418 82.8217 22.9825 82.6976C23.021 82.5738 23.1087 82.4669 23.2414 82.3794C23.3741 82.2917 23.5753 82.247 23.841 82.247H24.117V82.0292H19.6855V82.247H19.9615C20.2183 82.247 20.4197 82.2941 20.563 82.3878C20.7085 82.484 20.7964 82.5885 20.8306 82.7039C20.8627 82.8192 20.8798 83.0776 20.8798 83.4771V89.0779C20.8798 89.473 20.8605 89.7336 20.8198 89.8576C20.7813 89.9814 20.6936 90.0884 20.5609 90.1758C20.4281 90.2636 20.227 90.3083 19.9615 90.3083H19.6855V90.526H24.1168V90.3083ZM32.9409 81.8369V84.7846H32.6969C32.5128 84.0114 32.1725 83.4175 31.6714 83.0053C31.1706 82.5931 30.6033 82.3881 29.9696 82.3881C29.4408 82.3881 28.9547 82.5397 28.5117 82.8452C28.0707 83.1507 27.7474 83.5502 27.5419 84.0436C27.2786 84.676 27.1481 85.3788 27.1481 86.152C27.1481 86.9125 27.2444 87.6067 27.435 88.2326C27.6277 88.8563 27.9273 89.3305 28.3364 89.6487C28.7451 89.9691 29.2761 90.1295 29.9269 90.1295C30.4622 90.1295 30.9502 90.0119 31.3954 89.779C31.8386 89.5439 32.3073 89.1425 32.7997 88.57V89.3005C32.3245 89.7982 31.8277 90.1593 31.312 90.3835C30.796 90.6078 30.1945 90.719 29.5051 90.719C28.5975 90.719 27.7927 90.5376 27.0905 90.1744C26.3862 89.8112 25.8425 89.288 25.4614 88.6087C25.0784 87.9273 24.8876 87.2031 24.8876 86.4342C24.8876 85.6247 25.0996 84.8558 25.5236 84.1294C25.9473 83.4033 26.5189 82.8392 27.2403 82.4378C27.9596 82.0383 28.7239 81.8376 29.5352 81.8376C30.1324 81.8376 30.7618 81.9679 31.4255 82.2263C31.8109 82.378 32.0549 82.4527 32.1575 82.4527C32.2924 82.4527 32.408 82.4037 32.5066 82.3054C32.6051 82.2071 32.6672 82.0513 32.6971 81.8376H32.9409V81.8369ZM38.6031 81.9266C39.9581 81.8775 41.0606 82.2705 41.9083 83.1079C42.756 83.9472 43.1799 84.994 43.1799 86.2544C43.1799 87.3288 42.8632 88.2751 42.2316 89.0933C41.3945 90.1763 40.2129 90.7188 38.6843 90.7188C37.1515 90.7188 35.9676 90.2018 35.1308 89.168C34.4693 88.3499 34.1374 87.3822 34.1374 86.2609C34.1374 85.0007 34.5676 83.9518 35.4282 83.1122C36.2889 82.2705 37.3464 81.8775 38.6031 81.9266ZM38.678 82.3239C37.8966 82.3239 37.3035 82.719 36.8948 83.5115C36.5631 84.1609 36.3981 85.0942 36.3981 86.3119C36.3981 87.7579 36.6548 88.8282 37.1665 89.5202C37.5239 90.0028 38.0228 90.2443 38.665 90.2443C39.0974 90.2443 39.4592 90.1395 39.7483 89.9324C40.1166 89.6653 40.4054 89.2382 40.6109 88.6529C40.8164 88.0677 40.9192 87.3029 40.9192 86.3631C40.9192 85.2416 40.8142 84.4022 40.6044 83.8468C40.3946 83.2891 40.1269 82.8962 39.8015 82.6676C39.4766 82.4392 39.1017 82.3239 38.678 82.3239ZM43.897 90.5263V90.3085H44.1239C44.5501 90.3085 44.8196 90.2251 44.9287 90.0607C45.0379 89.8963 45.0916 89.5673 45.0916 89.0781V83.4773C45.0916 82.9647 45.0316 82.6337 44.9097 82.4777C44.7876 82.3239 44.5414 82.247 44.1668 82.247H43.897V82.0292H48.3283V82.247H48.1614C47.7567 82.247 47.485 82.3152 47.3436 82.4498C47.2044 82.5844 47.1338 82.9284 47.1338 83.4773V89.1293C47.1338 89.5502 47.1658 89.798 47.228 89.8684C47.2901 89.9389 47.5382 89.9751 47.9687 89.9751H49.2232C49.692 89.9751 49.9618 89.9432 50.0324 89.8812C50.1029 89.8191 50.1393 89.5822 50.1393 89.1678V83.4773C50.1393 82.9647 50.0815 82.6337 49.9637 82.4777C49.8459 82.3239 49.5976 82.247 49.2208 82.247H48.9448V82.0292H53.2732V82.247H53.1041C52.7572 82.247 52.5154 82.3152 52.3827 82.4498C52.2478 82.5844 52.1815 82.9284 52.1815 83.4773V89.0781C52.1815 89.5973 52.2437 89.9326 52.3656 90.0821C52.4899 90.2338 52.7358 90.3085 53.1041 90.3085H53.2732V93H53.055C52.736 91.3509 51.7983 90.5265 50.2422 90.5265H43.897V90.5263ZM53.888 82.0292H58.3193V82.247H58.1738C57.7563 82.247 57.4759 82.3239 57.3348 82.4799C57.1955 82.6337 57.125 82.9284 57.125 83.362V85.8997C57.7115 85.8997 58.0926 85.8804 58.2682 85.8398C58.4438 85.8014 58.6064 85.686 58.7584 85.4959C58.9082 85.3057 59.054 84.9404 59.193 84.3979C59.3556 83.7658 59.5141 83.2894 59.6661 82.9731C59.8181 82.6548 60.03 82.4027 60.2998 82.2169C60.5675 82.0311 60.9035 81.9393 61.3082 81.9393C61.7085 81.9393 62.0318 82.0525 62.2736 82.2811C62.5155 82.5097 62.6354 82.7894 62.6354 83.1247C62.6354 83.3834 62.554 83.5882 62.3914 83.7379C62.2286 83.8896 62.0275 83.9643 61.7856 83.9643C61.3103 83.9643 61.0555 83.6889 61.0172 83.1356C61.0001 82.8601 60.9037 82.7212 60.7281 82.7212C60.5397 82.7212 60.3791 82.8279 60.2444 83.0394C60.1117 83.2531 59.9662 83.6353 59.812 84.1842C59.6622 84.7226 59.5316 85.1262 59.4225 85.3954C59.3153 85.6646 59.1592 85.8888 58.96 86.0725C59.2276 86.1386 59.4331 86.2263 59.5765 86.3352C59.72 86.4441 59.8503 86.5852 59.966 86.7582C60.0838 86.9313 60.3343 87.3711 60.7194 88.0804L61.5842 89.629C61.717 89.8598 61.8776 90.0307 62.0636 90.1417C62.2498 90.2528 62.4748 90.3083 62.7378 90.3083V90.526H59.8843L58.1333 87.2728C57.9341 86.9012 57.7864 86.677 57.6944 86.6001C57.6002 86.521 57.4119 86.476 57.125 86.4633V89.3469C57.125 89.7591 57.2105 90.0239 57.3798 90.1371C57.5489 90.2503 57.8635 90.308 58.3195 90.308V90.5258H53.888V90.308C54.3782 90.2996 54.6993 90.2268 54.8534 90.0903C55.0054 89.9516 55.0825 89.6588 55.0825 89.206V83.5156C55.0825 83.0159 55.0225 82.6784 54.9006 82.5053C54.7785 82.3323 54.5025 82.247 54.0701 82.247H53.8882V82.0292H53.888ZM67.5801 81.9266C68.9351 81.8775 70.0376 82.2705 70.8853 83.1079C71.7329 83.9472 72.1569 84.994 72.1569 86.2544C72.1569 87.3288 71.8401 88.2751 71.2085 89.0933C70.3715 90.1763 69.1899 90.7188 67.6613 90.7188C66.1285 90.7188 64.9446 90.2018 64.1077 89.168C63.4463 88.3499 63.1143 87.3822 63.1143 86.2609C63.1143 85.0007 63.5445 83.9518 64.4052 83.1122C65.2659 82.2705 66.3234 81.8775 67.5801 81.9266ZM67.655 82.3239C66.8736 82.3239 66.2805 82.719 65.8717 83.5115C65.54 84.1609 65.375 85.0942 65.375 86.3119C65.375 87.7579 65.6318 88.8282 66.1435 89.5202C66.5009 90.0028 66.9998 90.2443 67.642 90.2443C68.0744 90.2443 68.4362 90.1395 68.7253 89.9324C69.0936 89.6653 69.3824 89.2382 69.5881 88.6529C69.7936 88.0677 69.8964 87.3029 69.8964 86.3631C69.8964 85.2416 69.7914 84.4022 69.5818 83.8468C69.372 83.2891 69.1044 82.8962 68.779 82.6676C68.4535 82.4392 68.0787 82.3239 67.655 82.3239ZM72.874 82.0292H80.3752V84.3361H80.1567C80.056 83.7679 79.9276 83.3663 79.7691 83.1315C79.6128 82.8986 79.42 82.7469 79.1931 82.6808C78.9662 82.6145 78.5189 82.5803 77.8466 82.5803H76.1105V89.1808C76.1105 89.6656 76.1811 89.9732 76.3203 90.1078C76.4593 90.2424 76.7142 90.3085 77.0866 90.3085H77.3051V90.5263H72.8738V90.3085H73.1134C73.4818 90.3085 73.732 90.2381 73.8669 90.0948C74.0018 89.9518 74.0681 89.6485 74.0681 89.1805V83.3235C74.0681 82.9327 74.0124 82.6548 73.9011 82.4926C73.7898 82.3282 73.5372 82.247 73.1433 82.247H72.8735V82.0292H72.874ZM85.4229 81.9266C86.7779 81.8775 87.8804 82.2705 88.7281 83.1079C89.5757 83.9472 89.9997 84.994 89.9997 86.2544C89.9997 87.3288 89.6829 88.2751 89.0513 89.0933C88.2143 90.1763 87.0327 90.7188 85.5041 90.7188C83.9713 90.7188 82.7874 90.2018 81.9505 89.168C81.2891 88.3499 80.9571 87.3822 80.9571 86.2609C80.9571 85.0007 81.3874 83.9518 82.248 83.1122C83.1089 82.2705 84.1664 81.8775 85.4229 81.9266ZM85.4978 82.3239C84.7164 82.3239 84.1233 82.719 83.7145 83.5115C83.3828 84.1609 83.2178 85.0942 83.2178 86.3119C83.2178 87.7579 83.4746 88.8282 83.9863 89.5202C84.3437 90.0028 84.8426 90.2443 85.4848 90.2443C85.9172 90.2443 86.279 90.1395 86.5681 89.9324C86.9364 89.6653 87.2252 89.2382 87.4309 88.6529C87.6364 88.0677 87.7392 87.3029 87.7392 86.3631C87.7392 85.2416 87.6342 84.4022 87.4246 83.8468C87.2148 83.2891 86.9472 82.8962 86.6218 82.6676C86.2963 82.4392 85.9218 82.3239 85.4978 82.3239Z" fill="white"/>
</svg>
