<svg width="31" height="30" viewBox="0 0 31 30" xmlns="http://www.w3.org/2000/svg">
<circle cx="15.1858" cy="15" r="15"/>
<path d="M21.0276 15.74C20.7476 15.17 19.9576 14.69 18.9076 15.5C17.4776 16.64 15.1976 16.64 15.1976 16.64C15.1976 16.64 12.9176 16.64 11.4876 15.5C10.4376 14.69 9.64756 15.17 9.36756 15.74C8.86756 16.74 9.42756 17.23 10.6976 18.04C11.7876 18.74 13.2776 19 14.2376 19.1L13.4376 19.9C12.2976 21.03 11.1976 22.12 10.4476 22.88C9.99756 23.34 9.99756 24.07 10.4476 24.5L10.5876 24.66C11.0376 25.11 11.7776 25.11 12.2276 24.66L15.1976 21.68C16.3476 22.81 17.4376 23.9 18.1976 24.66C18.6476 25.11 19.3776 25.11 19.8376 24.66L19.9676 24.5C20.4276 24.07 20.4276 23.34 19.9676 22.88L16.9876 19.9L16.1976 19.09C17.1476 19 18.6176 18.73 19.6976 18.04C20.9676 17.23 21.5276 16.74 21.0276 15.74ZM15.1976 7.57C16.5776 7.57 17.6976 8.69 17.6976 10.06C17.6976 11.44 16.5776 12.55 15.1976 12.55C13.8176 12.55 12.6976 11.44 12.6976 10.06C12.6976 8.69 13.8176 7.57 15.1976 7.57ZM15.1976 15.12C17.9976 15.12 20.2576 12.86 20.2576 10.06C20.2576 8.718 19.7245 7.43097 18.7755 6.48204C17.8266 5.53311 16.5396 5 15.1976 5C13.8556 5 12.5685 5.53311 11.6196 6.48204C10.6707 7.43097 10.1376 8.718 10.1376 10.06C10.1376 12.86 12.3976 15.12 15.1976 15.12Z" fill="#1B1A1A"/>
</svg>
