<svg width="12" height="14" viewBox="0 0 12 14" fill="none" xmlns="http://www.w3.org/2000/svg">
<path d="M10.656 9.1874C9.87816 8.50537 9.08879 8.09223 8.32052 8.77323L7.86177 9.18482C7.52612 9.4836 6.90206 10.8796 4.48922 8.03402C2.07688 5.19206 3.51242 4.74956 3.84857 4.45336L4.30983 4.04126C5.07409 3.35871 4.78567 2.49948 4.23447 1.615L3.90183 1.07927C3.34812 0.196854 2.74516 -0.382666 1.9789 0.29885L1.56486 0.669742C1.2262 0.922671 0.279556 1.74482 0.0499287 3.30669C-0.226428 5.18073 0.645351 7.32675 2.64265 9.68141C4.63744 12.0371 6.59053 13.2203 8.44061 13.1997C9.97815 13.1827 10.9067 12.3369 11.1971 12.0294L11.6127 11.658C12.3769 10.977 11.9021 10.2836 11.1238 9.60001L10.656 9.1874Z" fill="white"/>
</svg>
