<svg width="23" height="23" viewBox="0 0 23 23" xmlns="http://www.w3.org/2000/svg">
<path d="M11.4998 14.5669C13.1934 14.5669 14.5664 13.1939 14.5664 11.5003C14.5664 9.80659 13.1934 8.43359 11.4998 8.43359C9.8061 8.43359 8.43311 9.80659 8.43311 11.5003C8.43311 13.1939 9.8061 14.5669 11.4998 14.5669Z"/>
<path d="M8.62496 1.91602L6.87121 3.83268H3.83329C2.77913 3.83268 1.91663 4.69518 1.91663 5.74935V17.2493C1.91663 18.3035 2.77913 19.166 3.83329 19.166H19.1666C20.2208 19.166 21.0833 18.3035 21.0833 17.2493V5.74935C21.0833 4.69518 20.2208 3.83268 19.1666 3.83268H16.1287L14.375 1.91602H8.62496ZM11.5 16.291C8.85496 16.291 6.70829 14.1443 6.70829 11.4993C6.70829 8.85435 8.85496 6.70768 11.5 6.70768C14.145 6.70768 16.2916 8.85435 16.2916 11.4993C16.2916 14.1443 14.145 16.291 11.5 16.291Z"/>
</svg>
