<svg id="Слой_1" data-name="Слой 1" xmlns="http://www.w3.org/2000/svg" viewBox="0 0 1284.33 435.46"><defs><style>.cls-1,.cls-10,.cls-11,.cls-12,.cls-13,.cls-14,.cls-15,.cls-16,.cls-17,.cls-18,.cls-19,.cls-2,.cls-20,.cls-21,.cls-22,.cls-23,.cls-24,.cls-25,.cls-26,.cls-27,.cls-3,.cls-4,.cls-5,.cls-6,.cls-7,.cls-8,.cls-9{fill:none;stroke:#fff;}.cls-1,.cls-10,.cls-11,.cls-12,.cls-13,.cls-14,.cls-15,.cls-16,.cls-17,.cls-18,.cls-19,.cls-2,.cls-20,.cls-21,.cls-22,.cls-23,.cls-24,.cls-25,.cls-26,.cls-27,.cls-3,.cls-4,.cls-5,.cls-6,.cls-7,.cls-8{stroke-miterlimit:10;}.cls-1{stroke-width:0.75px;}.cls-2{stroke-width:0.97px;}.cls-3{stroke-width:0.47px;}.cls-4{stroke-width:0.87px;}.cls-5{stroke-width:0.36px;}.cls-6{stroke-width:0.75px;}.cls-26,.cls-27,.cls-7{stroke-width:0.5px;}.cls-8{stroke-width:1.14px;}.cls-9{stroke-linecap:round;stroke-linejoin:round;}.cls-10,.cls-11,.cls-12,.cls-13,.cls-14,.cls-15,.cls-20{stroke-width:0.25px;}.cls-11{stroke-dasharray:5.62 1.69 16.85 0.56;}.cls-12{stroke-dasharray:4.34 2.61 26.06 0.87;}.cls-13{stroke-dasharray:4.34 2.6 26.01 0.87;}.cls-14{stroke-dasharray:1.98 1.19 11.87 0.4;}.cls-15{stroke-dasharray:3.35 2.01 20.12 0.67;}.cls-16,.cls-26{stroke-dasharray:15 3 10 2.92 29.16 0.97;}.cls-17{stroke-dasharray:15 3 10 3 29.16 0.97;}.cls-18{stroke-width:1.15px;}.cls-20,.cls-21{stroke-dasharray:2 3 5 3 30 1;}.cls-21{stroke-width:0.25px;}.cls-22,.cls-23,.cls-24{stroke-width:0.24px;}.cls-22{stroke-dasharray:1.94 2.92 4.86 2.92 29.16 0.97;}.cls-23{stroke-dasharray:1.94 2.92 4.86 2.92 29.16 0.97;}.cls-25{stroke-width:0.99px;stroke-dasharray:14.86 2.97 9.91 2.89 28.89 0.96;}.cls-27{stroke-dasharray:14.86 2.97 9.91 2.89 28.89 0.96;}.cls-28{fill:#fff;}</style></defs><title>house</title><line class="cls-1" x1="1267.04" y1="434.96" x2="32.42" y2="434.96"/><path class="cls-1" d="M1323.71,465.85" transform="translate(-56.67 -30.89)"/><path class="cls-1" d="M1323.71,54.81" transform="translate(-56.67 -30.89)"/><line class="cls-1" x1="32.42" y1="23.92" x2="1267.04" y2="23.92"/><path class="cls-1" d="M89.08,54.81" transform="translate(-56.67 -30.89)"/><path class="cls-1" d="M89.08,465.85" transform="translate(-56.67 -30.89)"/><rect class="cls-2" x="263.71" y="191.93" width="776.67" height="45.83"/><rect class="cls-3" x="291.96" y="237.77" width="720.17" height="11.74"/><path class="cls-4" d="M89.08,54.81" transform="translate(-56.67 -30.89)"/><path class="cls-4" d="M89.08,31.33" transform="translate(-56.67 -30.89)"/><line class="cls-4" x1="1267.04" y1="0.44" x2="17.83" y2="0.44"/><line class="cls-4" x1="1273.33" y1="0.44" x2="24.12" y2="0.44"/><line class="cls-4" x1="28.08" y1="23.92" x2="1267.04" y2="23.92"/><line class="cls-4" x1="44.87" y1="23.92" x2="1283.83" y2="23.92"/><rect class="cls-5" x="287.35" y="97.98" width="12.71" height="23.33"/><rect class="cls-5" x="430.69" y="97.98" width="12.71" height="23.33"/><rect class="cls-5" x="574.04" y="97.98" width="12.71" height="23.33"/><rect class="cls-5" x="717.29" y="97.98" width="12.71" height="23.33"/><rect class="cls-5" x="860.63" y="97.98" width="12.71" height="23.33"/><rect class="cls-5" x="1004.13" y="97.98" width="12.71" height="23.33"/><line class="cls-5" x1="293.71" y1="121.32" x2="263.71" y2="191.93"/><line class="cls-5" x1="437.04" y1="121.32" x2="407.04" y2="191.93"/><line class="cls-5" x1="1010.48" y1="121.32" x2="1040.48" y2="191.93"/><line class="cls-5" x1="866.98" y1="121.32" x2="896.98" y2="191.93"/><line class="cls-5" x1="580.4" y1="121.32" x2="580.4" y2="191.93"/><line class="cls-5" x1="723.65" y1="121.32" x2="723.65" y2="191.93"/><rect class="cls-6" x="46.71" y="53.03" width="64" height="114.75"/><rect class="cls-7" x="49.71" y="55.94" width="58" height="50.5"/><rect class="cls-7" x="49.71" y="109.11" width="27.17" height="55.17"/><rect class="cls-7" x="80.54" y="109.11" width="27.17" height="55.17"/><path class="cls-8" d="M172.56,198.67" transform="translate(-56.67 -30.89)"/><polyline class="cls-9" points="41.46 167.78 41.46 47.28 115.96 47.28 115.96 167.78 115.9 167.78 120.38 167.78 120.38 172.03 37.04 172.03 37.04 167.78 41.54 167.78"/><line class="cls-10" x1="49.71" y1="68.36" x2="62.13" y2="55.94"/><line class="cls-10" x1="49.71" y1="75.86" x2="50.42" y2="75.15"/><line class="cls-11" x1="51.61" y1="73.96" x2="68.89" y2="56.68"/><line class="cls-10" x1="69.09" y1="56.48" x2="69.79" y2="55.78"/><line class="cls-10" x1="53.21" y1="83.86" x2="78.21" y2="58.86"/><line class="cls-10" x1="80.54" y1="106.44" x2="81.25" y2="105.74"/><line class="cls-12" x1="83.09" y1="103.89" x2="106.74" y2="80.25"/><line class="cls-10" x1="107.04" y1="79.94" x2="107.75" y2="79.23"/><line class="cls-10" x1="85.88" y1="106.44" x2="104.42" y2="87.9"/><line class="cls-10" x1="49.71" y1="154.19" x2="50.42" y2="153.49"/><line class="cls-13" x1="52.26" y1="151.65" x2="75.86" y2="128.04"/><line class="cls-10" x1="76.17" y1="127.73" x2="76.88" y2="127.03"/><line class="cls-10" x1="62.39" y1="151.72" x2="77.04" y2="137.07"/><line class="cls-10" x1="80.54" y1="153.03" x2="101.88" y2="131.69"/><line class="cls-10" x1="80.54" y1="145.36" x2="93.71" y2="132.19"/><rect class="cls-6" x="190.04" y="53.03" width="64" height="114.75"/><rect class="cls-7" x="193.04" y="55.94" width="58" height="50.5"/><rect class="cls-7" x="193.04" y="109.11" width="27.17" height="55.17"/><rect class="cls-7" x="223.88" y="109.11" width="27.17" height="55.17"/><path class="cls-8" d="M315.9,198.67" transform="translate(-56.67 -30.89)"/><polyline class="cls-9" points="184.79 167.78 184.79 47.28 259.29 47.28 259.29 167.78 259.23 167.78 263.71 167.78 263.71 172.03 180.38 172.03 180.38 167.78 184.87 167.78"/><line class="cls-10" x1="193.04" y1="68.36" x2="205.46" y2="55.94"/><line class="cls-10" x1="201.96" y1="84.55" x2="202.67" y2="83.84"/><line class="cls-11" x1="203.86" y1="82.65" x2="221.14" y2="65.37"/><line class="cls-10" x1="221.34" y1="65.17" x2="222.04" y2="64.46"/><line class="cls-10" x1="196.54" y1="83.86" x2="221.54" y2="58.86"/><line class="cls-10" x1="223.88" y1="106.44" x2="224.58" y2="105.74"/><line class="cls-12" x1="226.43" y1="103.89" x2="250.07" y2="80.25"/><line class="cls-10" x1="250.38" y1="79.94" x2="251.08" y2="79.23"/><line class="cls-10" x1="229.21" y1="106.44" x2="247.75" y2="87.9"/><line class="cls-10" x1="223.88" y1="153.03" x2="245.21" y2="131.69"/><line class="cls-10" x1="223.88" y1="145.36" x2="224.58" y2="144.65"/><line class="cls-14" x1="225.42" y1="143.81" x2="236.2" y2="133.04"/><line class="cls-10" x1="236.34" y1="132.9" x2="237.04" y2="132.19"/><rect class="cls-6" x="763.38" y="53.03" width="64" height="114.75"/><rect class="cls-7" x="766.38" y="55.94" width="58" height="50.5"/><rect class="cls-7" x="766.38" y="109.11" width="27.17" height="55.17"/><rect class="cls-7" x="797.21" y="109.11" width="27.17" height="55.17"/><path class="cls-8" d="M889.23,198.67" transform="translate(-56.67 -30.89)"/><polyline class="cls-9" points="758.13 167.78 758.13 47.28 832.63 47.28 832.63 167.78 832.56 167.78 837.04 167.78 837.04 172.03 753.71 172.03 753.71 167.78 758.2 167.78"/><line class="cls-10" x1="766.38" y1="68.36" x2="778.79" y2="55.94"/><line class="cls-10" x1="775.29" y1="84.55" x2="776" y2="83.84"/><line class="cls-11" x1="777.19" y1="82.65" x2="794.47" y2="65.37"/><line class="cls-10" x1="794.67" y1="65.17" x2="795.38" y2="64.46"/><line class="cls-10" x1="769.88" y1="83.86" x2="794.88" y2="58.86"/><line class="cls-10" x1="797.21" y1="106.44" x2="797.92" y2="105.74"/><line class="cls-12" x1="799.76" y1="103.89" x2="823.4" y2="80.25"/><line class="cls-10" x1="823.71" y1="79.94" x2="824.42" y2="79.23"/><line class="cls-10" x1="802.54" y1="106.44" x2="821.08" y2="87.9"/><line class="cls-10" x1="797.21" y1="153.03" x2="818.54" y2="131.69"/><line class="cls-10" x1="797.21" y1="145.36" x2="797.92" y2="144.65"/><line class="cls-14" x1="798.76" y1="143.81" x2="809.53" y2="133.04"/><line class="cls-10" x1="809.67" y1="132.9" x2="810.38" y2="132.19"/><rect class="cls-6" x="1050.04" y="53.03" width="64" height="114.75"/><rect class="cls-7" x="1053.04" y="55.94" width="58" height="50.5"/><rect class="cls-7" x="1053.04" y="109.11" width="27.17" height="55.17"/><rect class="cls-7" x="1083.88" y="109.11" width="27.17" height="55.17"/><path class="cls-8" d="M1175.9,198.67" transform="translate(-56.67 -30.89)"/><polyline class="cls-9" points="1044.79 167.78 1044.79 47.28 1119.29 47.28 1119.29 167.78 1119.23 167.78 1123.71 167.78 1123.71 172.03 1040.38 172.03 1040.38 167.78 1044.87 167.78"/><line class="cls-10" x1="1053.04" y1="68.36" x2="1065.46" y2="55.94"/><line class="cls-10" x1="1061.96" y1="84.55" x2="1062.67" y2="83.84"/><line class="cls-11" x1="1063.86" y1="82.65" x2="1081.14" y2="65.37"/><line class="cls-10" x1="1081.34" y1="65.17" x2="1082.04" y2="64.46"/><line class="cls-10" x1="1056.54" y1="83.86" x2="1081.54" y2="58.86"/><line class="cls-10" x1="1083.88" y1="106.44" x2="1084.58" y2="105.74"/><line class="cls-12" x1="1086.43" y1="103.89" x2="1110.07" y2="80.25"/><line class="cls-10" x1="1110.38" y1="79.94" x2="1111.08" y2="79.23"/><line class="cls-10" x1="1089.21" y1="106.44" x2="1107.75" y2="87.9"/><line class="cls-10" x1="1083.88" y1="153.03" x2="1105.21" y2="131.69"/><line class="cls-10" x1="1083.88" y1="145.36" x2="1084.58" y2="144.65"/><line class="cls-14" x1="1085.42" y1="143.81" x2="1096.2" y2="133.04"/><line class="cls-10" x1="1096.34" y1="132.9" x2="1097.04" y2="132.19"/><rect class="cls-6" x="763.38" y="268.37" width="64" height="114.75"/><rect class="cls-7" x="766.38" y="271.29" width="58" height="50.5"/><rect class="cls-7" x="766.38" y="324.46" width="27.17" height="55.17"/><rect class="cls-7" x="797.21" y="324.46" width="27.17" height="55.17"/><path class="cls-8" d="M889.23,414" transform="translate(-56.67 -30.89)"/><polyline class="cls-9" points="758.13 383.12 758.13 262.62 832.63 262.62 832.63 383.12 832.56 383.12 837.04 383.12 837.04 387.37 753.71 387.37 753.71 383.12 758.2 383.12"/><line class="cls-10" x1="766.38" y1="283.71" x2="778.79" y2="271.29"/><line class="cls-10" x1="775.29" y1="299.89" x2="776" y2="299.19"/><line class="cls-11" x1="777.19" y1="298" x2="794.47" y2="280.72"/><line class="cls-10" x1="794.67" y1="280.52" x2="795.38" y2="279.81"/><line class="cls-10" x1="769.88" y1="299.21" x2="794.88" y2="274.21"/><line class="cls-10" x1="797.21" y1="321.79" x2="797.92" y2="321.08"/><line class="cls-12" x1="799.76" y1="319.24" x2="823.4" y2="295.6"/><line class="cls-10" x1="823.71" y1="295.29" x2="824.42" y2="294.58"/><line class="cls-10" x1="802.54" y1="321.79" x2="821.08" y2="303.25"/><line class="cls-10" x1="797.21" y1="368.37" x2="818.54" y2="347.04"/><line class="cls-10" x1="797.21" y1="360.71" x2="797.92" y2="360"/><line class="cls-14" x1="798.76" y1="359.16" x2="809.53" y2="348.39"/><line class="cls-10" x1="809.67" y1="348.25" x2="810.38" y2="347.54"/><rect class="cls-6" x="620.04" y="53.03" width="64" height="114.75"/><rect class="cls-7" x="623.04" y="55.94" width="58" height="50.5"/><rect class="cls-7" x="623.04" y="109.11" width="27.17" height="55.17"/><rect class="cls-7" x="653.88" y="109.11" width="27.17" height="55.17"/><path class="cls-8" d="M745.9,198.67" transform="translate(-56.67 -30.89)"/><polyline class="cls-9" points="614.79 167.78 614.79 47.28 689.29 47.28 689.29 167.78 689.23 167.78 693.71 167.78 693.71 172.03 610.38 172.03 610.38 167.78 614.87 167.78"/><line class="cls-10" x1="623.04" y1="68.36" x2="635.46" y2="55.94"/><line class="cls-10" x1="623.04" y1="75.86" x2="623.75" y2="75.15"/><line class="cls-11" x1="624.94" y1="73.96" x2="642.22" y2="56.68"/><line class="cls-10" x1="642.42" y1="56.48" x2="643.13" y2="55.78"/><line class="cls-10" x1="626.54" y1="83.86" x2="651.54" y2="58.86"/><line class="cls-10" x1="653.88" y1="106.44" x2="654.58" y2="105.74"/><line class="cls-12" x1="656.43" y1="103.89" x2="680.07" y2="80.25"/><line class="cls-10" x1="680.38" y1="79.94" x2="681.08" y2="79.23"/><line class="cls-10" x1="659.21" y1="106.44" x2="677.75" y2="87.9"/><line class="cls-10" x1="623.04" y1="154.19" x2="623.75" y2="153.49"/><line class="cls-13" x1="625.59" y1="151.65" x2="649.2" y2="128.04"/><line class="cls-10" x1="649.5" y1="127.73" x2="650.21" y2="127.03"/><line class="cls-10" x1="635.72" y1="151.72" x2="650.37" y2="137.07"/><line class="cls-10" x1="653.88" y1="153.03" x2="675.21" y2="131.69"/><line class="cls-10" x1="653.88" y1="145.36" x2="667.04" y2="132.19"/><rect class="cls-6" x="476.71" y="268.37" width="64" height="114.75"/><rect class="cls-7" x="479.71" y="271.29" width="58" height="50.5"/><rect class="cls-7" x="479.71" y="324.46" width="27.17" height="55.17"/><rect class="cls-7" x="510.54" y="324.46" width="27.17" height="55.17"/><path class="cls-8" d="M602.56,414" transform="translate(-56.67 -30.89)"/><polyline class="cls-9" points="471.46 383.12 471.46 262.62 545.96 262.62 545.96 383.12 545.9 383.12 550.38 383.12 550.38 387.37 467.04 387.37 467.04 383.12 471.54 383.12"/><line class="cls-10" x1="479.71" y1="283.71" x2="492.13" y2="271.29"/><line class="cls-10" x1="479.71" y1="291.21" x2="480.42" y2="290.5"/><line class="cls-11" x1="481.61" y1="289.31" x2="498.89" y2="272.03"/><line class="cls-10" x1="499.09" y1="271.83" x2="499.79" y2="271.12"/><line class="cls-10" x1="483.21" y1="299.21" x2="508.21" y2="274.21"/><line class="cls-10" x1="510.54" y1="321.79" x2="511.25" y2="321.08"/><line class="cls-12" x1="513.09" y1="319.24" x2="536.74" y2="295.6"/><line class="cls-10" x1="537.04" y1="295.29" x2="537.75" y2="294.58"/><line class="cls-10" x1="515.88" y1="321.79" x2="534.42" y2="303.25"/><line class="cls-10" x1="479.71" y1="369.54" x2="480.42" y2="368.83"/><line class="cls-13" x1="482.26" y1="366.99" x2="505.86" y2="343.39"/><line class="cls-10" x1="506.17" y1="343.08" x2="506.88" y2="342.37"/><line class="cls-10" x1="492.39" y1="367.07" x2="507.04" y2="352.42"/><line class="cls-10" x1="510.54" y1="368.37" x2="531.88" y2="347.04"/><line class="cls-10" x1="510.54" y1="360.71" x2="523.71" y2="347.54"/><rect class="cls-6" x="620.04" y="268.37" width="64" height="114.75"/><rect class="cls-7" x="623.04" y="271.29" width="58" height="50.5"/><rect class="cls-7" x="623.04" y="324.46" width="27.17" height="55.17"/><rect class="cls-7" x="653.88" y="324.46" width="27.17" height="55.17"/><path class="cls-8" d="M745.9,414" transform="translate(-56.67 -30.89)"/><polyline class="cls-9" points="614.79 383.12 614.79 262.62 689.29 262.62 689.29 383.12 689.23 383.12 693.71 383.12 693.71 387.37 610.38 387.37 610.38 383.12 614.87 383.12"/><line class="cls-10" x1="661.27" y1="283.71" x2="673.69" y2="271.29"/><line class="cls-10" x1="661" y1="291.21" x2="661.71" y2="290.5"/><line class="cls-11" x1="662.9" y1="289.31" x2="680.18" y2="272.03"/><line class="cls-10" x1="680.38" y1="271.83" x2="681.08" y2="271.12"/><line class="cls-10" x1="623.22" y1="311.71" x2="648.22" y2="286.71"/><line class="cls-10" x1="623.22" y1="379.25" x2="623.93" y2="378.54"/><line class="cls-12" x1="625.77" y1="376.7" x2="649.41" y2="353.05"/><line class="cls-10" x1="649.72" y1="352.75" x2="650.43" y2="352.04"/><line class="cls-10" x1="627.55" y1="366.98" x2="646.09" y2="348.44"/><line class="cls-10" x1="623.04" y1="321.77" x2="623.75" y2="321.06"/><line class="cls-13" x1="625.59" y1="319.22" x2="649.2" y2="295.62"/><line class="cls-10" x1="649.5" y1="295.31" x2="650.21" y2="294.6"/><line class="cls-10" x1="635.72" y1="339.11" x2="650.37" y2="324.46"/><line class="cls-10" x1="653.88" y1="368.37" x2="654.58" y2="367.67"/><line class="cls-15" x1="656.01" y1="366.24" x2="674.26" y2="347.98"/><line class="cls-10" x1="674.5" y1="347.75" x2="675.21" y2="347.04"/><line class="cls-10" x1="653.88" y1="360.71" x2="667.04" y2="347.54"/><rect class="cls-6" x="333.38" y="53.03" width="64" height="114.75"/><rect class="cls-7" x="336.38" y="55.94" width="58" height="50.5"/><rect class="cls-7" x="336.38" y="109.11" width="27.17" height="55.17"/><rect class="cls-7" x="367.21" y="109.11" width="27.17" height="55.17"/><path class="cls-8" d="M459.23,198.67" transform="translate(-56.67 -30.89)"/><polyline class="cls-9" points="328.13 167.78 328.13 47.28 402.63 47.28 402.63 167.78 402.56 167.78 407.04 167.78 407.04 172.03 323.71 172.03 323.71 167.78 328.2 167.78"/><line class="cls-10" x1="374.6" y1="68.36" x2="387.02" y2="55.94"/><line class="cls-10" x1="374.33" y1="75.86" x2="375.04" y2="75.15"/><line class="cls-11" x1="376.23" y1="73.96" x2="393.51" y2="56.68"/><line class="cls-10" x1="393.71" y1="56.48" x2="394.42" y2="55.78"/><line class="cls-10" x1="336.55" y1="96.36" x2="361.55" y2="71.36"/><line class="cls-10" x1="336.55" y1="163.9" x2="337.26" y2="163.19"/><line class="cls-12" x1="339.1" y1="161.35" x2="362.75" y2="137.71"/><line class="cls-10" x1="363.05" y1="137.4" x2="363.76" y2="136.69"/><line class="cls-10" x1="340.89" y1="151.63" x2="359.43" y2="133.09"/><line class="cls-10" x1="336.38" y1="106.42" x2="337.08" y2="105.72"/><line class="cls-13" x1="338.92" y1="103.88" x2="362.53" y2="80.27"/><line class="cls-10" x1="362.84" y1="79.96" x2="363.54" y2="79.26"/><line class="cls-10" x1="349.05" y1="123.76" x2="363.71" y2="109.11"/><line class="cls-10" x1="367.21" y1="153.03" x2="367.92" y2="152.32"/><line class="cls-15" x1="369.34" y1="150.9" x2="387.6" y2="132.64"/><line class="cls-10" x1="387.84" y1="132.4" x2="388.54" y2="131.69"/><line class="cls-10" x1="367.21" y1="145.36" x2="380.38" y2="132.19"/><rect class="cls-6" x="476.71" y="53.03" width="64" height="114.75"/><rect class="cls-7" x="479.71" y="55.94" width="58" height="50.5"/><rect class="cls-7" x="479.71" y="109.11" width="27.17" height="55.17"/><rect class="cls-7" x="510.54" y="109.11" width="27.17" height="55.17"/><path class="cls-8" d="M602.56,198.67" transform="translate(-56.67 -30.89)"/><polyline class="cls-9" points="471.46 167.78 471.46 47.28 545.96 47.28 545.96 167.78 545.9 167.78 550.38 167.78 550.38 172.03 467.04 172.03 467.04 167.78 471.54 167.78"/><line class="cls-10" x1="517.94" y1="68.36" x2="530.35" y2="55.94"/><line class="cls-10" x1="517.67" y1="75.86" x2="518.37" y2="75.15"/><line class="cls-11" x1="519.57" y1="73.96" x2="536.84" y2="56.68"/><line class="cls-10" x1="537.04" y1="56.48" x2="537.75" y2="55.78"/><line class="cls-10" x1="479.89" y1="96.36" x2="504.89" y2="71.36"/><line class="cls-10" x1="479.89" y1="163.9" x2="480.59" y2="163.19"/><line class="cls-12" x1="482.44" y1="161.35" x2="506.08" y2="137.71"/><line class="cls-10" x1="506.39" y1="137.4" x2="507.09" y2="136.69"/><line class="cls-10" x1="484.22" y1="151.63" x2="502.76" y2="133.09"/><line class="cls-10" x1="479.71" y1="106.42" x2="480.42" y2="105.72"/><line class="cls-13" x1="482.26" y1="103.88" x2="505.86" y2="80.27"/><line class="cls-10" x1="506.17" y1="79.96" x2="506.88" y2="79.26"/><line class="cls-10" x1="492.39" y1="123.76" x2="507.04" y2="109.11"/><line class="cls-10" x1="510.54" y1="153.03" x2="511.25" y2="152.32"/><line class="cls-15" x1="512.67" y1="150.9" x2="530.93" y2="132.64"/><line class="cls-10" x1="531.17" y1="132.4" x2="531.88" y2="131.69"/><line class="cls-10" x1="510.54" y1="145.36" x2="523.71" y2="132.19"/><rect class="cls-6" x="1193.38" y="53.03" width="64" height="114.75"/><rect class="cls-7" x="1196.38" y="55.94" width="58" height="50.5"/><rect class="cls-7" x="1196.38" y="109.11" width="27.17" height="55.17"/><rect class="cls-7" x="1227.21" y="109.11" width="27.17" height="55.17"/><path class="cls-8" d="M1319.23,198.67" transform="translate(-56.67 -30.89)"/><polyline class="cls-9" points="1188.13 167.78 1188.13 47.28 1262.63 47.28 1262.63 167.78 1262.56 167.78 1267.04 167.78 1267.04 172.03 1183.71 172.03 1183.71 167.78 1188.2 167.78"/><line class="cls-10" x1="1234.6" y1="68.36" x2="1247.02" y2="55.94"/><line class="cls-10" x1="1234.33" y1="75.86" x2="1235.04" y2="75.15"/><line class="cls-11" x1="1236.23" y1="73.96" x2="1253.51" y2="56.68"/><line class="cls-10" x1="1253.71" y1="56.48" x2="1254.42" y2="55.78"/><line class="cls-10" x1="1196.55" y1="96.36" x2="1221.55" y2="71.36"/><line class="cls-10" x1="1196.55" y1="163.9" x2="1197.26" y2="163.19"/><line class="cls-12" x1="1199.1" y1="161.35" x2="1222.75" y2="137.71"/><line class="cls-10" x1="1223.05" y1="137.4" x2="1223.76" y2="136.69"/><line class="cls-10" x1="1200.89" y1="151.63" x2="1219.43" y2="133.09"/><line class="cls-10" x1="1196.38" y1="106.42" x2="1197.08" y2="105.72"/><line class="cls-13" x1="1198.92" y1="103.88" x2="1222.53" y2="80.27"/><line class="cls-10" x1="1222.84" y1="79.96" x2="1223.54" y2="79.26"/><line class="cls-10" x1="1209.05" y1="123.76" x2="1223.71" y2="109.11"/><line class="cls-10" x1="1227.21" y1="153.03" x2="1227.92" y2="152.32"/><line class="cls-15" x1="1229.34" y1="150.9" x2="1247.6" y2="132.64"/><line class="cls-10" x1="1247.84" y1="132.4" x2="1248.54" y2="131.69"/><line class="cls-10" x1="1227.21" y1="145.36" x2="1240.38" y2="132.19"/><rect class="cls-6" x="906.71" y="53.03" width="64" height="114.75"/><rect class="cls-7" x="909.71" y="55.94" width="58" height="50.5"/><rect class="cls-7" x="909.71" y="109.11" width="27.17" height="55.17"/><rect class="cls-7" x="940.54" y="109.11" width="27.17" height="55.17"/><path class="cls-8" d="M1032.56,198.67" transform="translate(-56.67 -30.89)"/><polyline class="cls-9" points="901.46 167.78 901.46 47.28 975.96 47.28 975.96 167.78 975.9 167.78 980.38 167.78 980.38 172.03 897.04 172.03 897.04 167.78 901.54 167.78"/><line class="cls-10" x1="909.71" y1="68.36" x2="922.13" y2="55.94"/><line class="cls-10" x1="909.71" y1="75.86" x2="910.42" y2="75.15"/><line class="cls-11" x1="911.61" y1="73.96" x2="928.89" y2="56.68"/><line class="cls-10" x1="929.09" y1="56.48" x2="929.79" y2="55.78"/><line class="cls-10" x1="913.21" y1="83.86" x2="938.21" y2="58.86"/><line class="cls-10" x1="940.54" y1="106.44" x2="941.25" y2="105.74"/><line class="cls-12" x1="943.09" y1="103.89" x2="966.74" y2="80.25"/><line class="cls-10" x1="967.04" y1="79.94" x2="967.75" y2="79.23"/><line class="cls-10" x1="945.88" y1="106.44" x2="964.42" y2="87.9"/><line class="cls-10" x1="909.71" y1="154.19" x2="910.42" y2="153.49"/><line class="cls-13" x1="912.26" y1="151.65" x2="935.86" y2="128.04"/><line class="cls-10" x1="936.17" y1="127.73" x2="936.88" y2="127.03"/><line class="cls-10" x1="922.39" y1="151.72" x2="937.04" y2="137.07"/><line class="cls-10" x1="940.54" y1="153.03" x2="961.88" y2="131.69"/><line class="cls-10" x1="940.54" y1="145.36" x2="953.71" y2="132.19"/><line class="cls-16" x1="302.71" y1="389.12" y2="389.12"/><line class="cls-16" x1="1284.33" y1="389.12" x2="1001.38" y2="389.12"/><line class="cls-17" x1="897.04" y1="389.12" x2="407.04" y2="389.12"/><path class="cls-18" d="M359.37,420" transform="translate(-56.67 -30.89)"/><rect class="cls-6" x="308.38" y="268.96" width="93" height="166"/><rect class="cls-10" x="313.04" y="273.46" width="14" height="24.33"/><rect class="cls-10" x="332.04" y="273.46" width="14" height="24.33"/><rect class="cls-10" x="351.04" y="273.46" width="14" height="24.33"/><rect class="cls-10" x="313.04" y="302.79" width="14" height="24.33"/><rect class="cls-10" x="332.04" y="302.79" width="14" height="24.33"/><rect class="cls-10" x="351.04" y="302.79" width="14" height="24.33"/><rect class="cls-10" x="313.04" y="332.12" width="14" height="24.33"/><rect class="cls-10" x="332.04" y="332.12" width="14" height="24.33"/><rect class="cls-10" x="351.04" y="332.12" width="14" height="24.33"/><rect class="cls-10" x="313.04" y="361.46" width="14" height="24.33"/><rect class="cls-10" x="332.04" y="361.46" width="14" height="24.33"/><rect class="cls-10" x="351.04" y="361.46" width="14" height="24.33"/><rect class="cls-10" x="380.88" y="273.46" width="14" height="24.33"/><rect class="cls-10" x="380.88" y="302.79" width="14" height="24.33"/><rect class="cls-10" x="380.88" y="332.12" width="14" height="24.33"/><rect class="cls-10" x="380.88" y="361.46" width="14" height="24.33"/><rect class="cls-10" x="313.04" y="389.12" width="52" height="41"/><rect class="cls-10" x="380.88" y="389.12" width="14" height="41"/><rect class="cls-19" x="302.71" y="262.62" width="104.33" height="172.33"/><polygon class="cls-10" points="377.67 330.37 377.67 327.72 372 327.72 372 324.46 369.33 324.46 369.33 385.79 372 385.79 372 382.53 377.67 382.53 377.67 379.87 372 379.87 372 330.37 377.67 330.37"/><line class="cls-10" x1="316.33" y1="430.12" x2="316.33" y2="389.12"/><line class="cls-10" x1="320.04" y1="430.12" x2="320.04" y2="389.12"/><line class="cls-20" x1="324.83" y1="430.12" x2="324.83" y2="395.86"/><line class="cls-10" x1="329.33" y1="430.12" x2="329.33" y2="406.61"/><line class="cls-20" x1="336.08" y1="430.12" x2="336.08" y2="409.62"/><line class="cls-20" x1="317.33" y1="385.79" x2="317.33" y2="361.46"/><line class="cls-10" x1="322.08" y1="385.79" x2="322.08" y2="369.54"/><line class="cls-21" x1="315.08" y1="356.46" x2="315.08" y2="332.12"/><line class="cls-10" x1="318.33" y1="356.46" x2="318.33" y2="332.12"/><line class="cls-10" x1="323.08" y1="356.46" x2="323.08" y2="335.61"/><line class="cls-10" x1="316.33" y1="327.12" x2="316.33" y2="302.79"/><line class="cls-20" x1="320.04" y1="327.12" x2="320.04" y2="310.11"/><line class="cls-10" x1="323.08" y1="327.12" x2="323.08" y2="317.36"/><line class="cls-10" x1="316.33" y1="297.79" x2="316.33" y2="283.71"/><line class="cls-20" x1="320.04" y1="296.54" x2="320.04" y2="275.36"/><line class="cls-10" x1="323.08" y1="297.79" x2="323.08" y2="279.61"/><line class="cls-22" x1="387.88" y1="273.46" x2="387.88" y2="297.79"/><line class="cls-20" x1="391.67" y1="273.46" x2="391.67" y2="290.75"/><line class="cls-23" x1="384" y1="302.79" x2="384" y2="327.12"/><line class="cls-24" x1="387.88" y1="303.25" x2="387.88" y2="327.12"/><line class="cls-23" x1="391.67" y1="302.79" x2="391.67" y2="320.11"/><line class="cls-24" x1="384" y1="332.12" x2="384" y2="347.54"/><line class="cls-23" x1="387.88" y1="332.12" x2="387.88" y2="352.42"/><line class="cls-24" x1="391.67" y1="332.12" x2="391.67" y2="348.79"/><line class="cls-24" x1="391.67" y1="361.46" x2="391.67" y2="383.12"/><line class="cls-23" x1="387.88" y1="361.46" x2="387.88" y2="377.66"/><line class="cls-24" x1="391.67" y1="389.12" x2="391.67" y2="425.78"/><line class="cls-24" x1="387.88" y1="389.12" x2="387.88" y2="419.87"/><line class="cls-23" x1="384" y1="389.12" x2="384" y2="407.45"/><line class="cls-22" x1="346.04" y1="389.12" x2="346.04" y2="412.99"/><line class="cls-24" x1="351.04" y1="389.12" x2="351.04" y2="423.11"/><line class="cls-22" x1="357" y1="389.12" x2="357" y2="404.5"/><line class="cls-22" x1="361" y1="389.12" x2="361" y2="404.5"/><line class="cls-22" x1="336.08" y1="361.46" x2="336.08" y2="385.79"/><line class="cls-24" x1="339.04" y1="361.46" x2="339.04" y2="377.66"/><line class="cls-22" x1="339.04" y1="332.12" x2="339.04" y2="351.96"/><line class="cls-24" x1="341.33" y1="337.78" x2="341.33" y2="356.46"/><line class="cls-24" x1="336.08" y1="303.25" x2="336.08" y2="327.12"/><line class="cls-22" x1="342.67" y1="327.12" x2="342.67" y2="303.25"/><line class="cls-22" x1="339.04" y1="310.11" x2="339.04" y2="320.11"/><line class="cls-22" x1="334.67" y1="296.54" x2="334.67" y2="277.5"/><line class="cls-22" x1="339.04" y1="282.1" x2="339.04" y2="297.79"/><line class="cls-24" x1="357" y1="273.46" x2="357" y2="291.21"/><line class="cls-22" x1="359.67" y1="282.1" x2="359.67" y2="297.79"/><line class="cls-22" x1="354.88" y1="302.79" x2="354.88" y2="320.11"/><line class="cls-24" x1="358.04" y1="308.19" x2="358.04" y2="327.12"/><line class="cls-24" x1="354.88" y1="332.12" x2="354.88" y2="355.96"/><line class="cls-22" x1="359.67" y1="337.78" x2="359.67" y2="356.46"/><line class="cls-22" x1="362.67" y1="361.46" x2="362.67" y2="383.12"/><line class="cls-22" x1="357" y1="361.46" x2="357" y2="379.62"/><line class="cls-24" x1="359.67" y1="361.46" x2="359.67" y2="370.54"/><path class="cls-18" d="M953.71,420" transform="translate(-56.67 -30.89)"/><rect class="cls-6" x="902.71" y="268.96" width="93" height="166"/><rect class="cls-10" x="907.38" y="273.46" width="14" height="24.33"/><rect class="cls-10" x="926.38" y="273.46" width="14" height="24.33"/><rect class="cls-10" x="945.38" y="273.46" width="14" height="24.33"/><rect class="cls-10" x="907.38" y="302.79" width="14" height="24.33"/><rect class="cls-10" x="926.38" y="302.79" width="14" height="24.33"/><rect class="cls-10" x="945.38" y="302.79" width="14" height="24.33"/><rect class="cls-10" x="907.38" y="332.12" width="14" height="24.33"/><rect class="cls-10" x="926.38" y="332.12" width="14" height="24.33"/><rect class="cls-10" x="945.38" y="332.12" width="14" height="24.33"/><rect class="cls-10" x="907.38" y="361.46" width="14" height="24.33"/><rect class="cls-10" x="926.38" y="361.46" width="14" height="24.33"/><rect class="cls-10" x="945.38" y="361.46" width="14" height="24.33"/><rect class="cls-10" x="975.21" y="273.46" width="14" height="24.33"/><rect class="cls-10" x="975.21" y="302.79" width="14" height="24.33"/><rect class="cls-10" x="975.21" y="332.12" width="14" height="24.33"/><rect class="cls-10" x="975.21" y="361.46" width="14" height="24.33"/><rect class="cls-10" x="907.38" y="389.12" width="52" height="41"/><rect class="cls-10" x="975.21" y="389.12" width="14" height="41"/><rect class="cls-19" x="897.04" y="262.62" width="104.33" height="172.33"/><polygon class="cls-10" points="972 330.37 972 327.72 966.33 327.72 966.33 324.46 963.67 324.46 963.67 385.79 966.33 385.79 966.33 382.53 972 382.53 972 379.87 966.33 379.87 966.33 330.37 972 330.37"/><line class="cls-10" x1="910.67" y1="430.12" x2="910.67" y2="389.12"/><line class="cls-10" x1="914.38" y1="430.12" x2="914.38" y2="389.12"/><line class="cls-20" x1="919.17" y1="430.12" x2="919.17" y2="395.86"/><line class="cls-10" x1="923.67" y1="430.12" x2="923.67" y2="406.61"/><line class="cls-20" x1="930.42" y1="430.12" x2="930.42" y2="409.62"/><line class="cls-20" x1="911.67" y1="385.79" x2="911.67" y2="361.46"/><line class="cls-10" x1="916.42" y1="385.79" x2="916.42" y2="369.54"/><line class="cls-21" x1="909.42" y1="356.46" x2="909.42" y2="332.12"/><line class="cls-10" x1="912.67" y1="356.46" x2="912.67" y2="332.12"/><line class="cls-10" x1="917.42" y1="356.46" x2="917.42" y2="335.61"/><line class="cls-10" x1="910.67" y1="327.12" x2="910.67" y2="302.79"/><line class="cls-20" x1="914.38" y1="327.12" x2="914.38" y2="310.11"/><line class="cls-10" x1="917.42" y1="327.12" x2="917.42" y2="317.36"/><line class="cls-10" x1="910.67" y1="297.79" x2="910.67" y2="283.71"/><line class="cls-20" x1="914.38" y1="296.54" x2="914.38" y2="275.36"/><line class="cls-10" x1="917.42" y1="297.79" x2="917.42" y2="279.61"/><line class="cls-22" x1="982.21" y1="273.46" x2="982.21" y2="297.79"/><line class="cls-20" x1="986" y1="273.46" x2="986" y2="290.75"/><line class="cls-23" x1="978.33" y1="302.79" x2="978.33" y2="327.12"/><line class="cls-24" x1="982.21" y1="303.25" x2="982.21" y2="327.12"/><line class="cls-23" x1="986" y1="302.79" x2="986" y2="320.11"/><line class="cls-24" x1="978.33" y1="332.12" x2="978.33" y2="347.54"/><line class="cls-23" x1="982.21" y1="332.12" x2="982.21" y2="352.42"/><line class="cls-24" x1="986" y1="332.12" x2="986" y2="348.79"/><line class="cls-24" x1="986" y1="361.46" x2="986" y2="383.12"/><line class="cls-23" x1="982.21" y1="361.46" x2="982.21" y2="377.66"/><line class="cls-24" x1="986" y1="389.12" x2="986" y2="425.78"/><line class="cls-24" x1="982.21" y1="389.12" x2="982.21" y2="419.87"/><line class="cls-23" x1="978.33" y1="389.12" x2="978.33" y2="407.45"/><line class="cls-22" x1="940.38" y1="389.12" x2="940.38" y2="412.99"/><line class="cls-24" x1="945.38" y1="389.12" x2="945.38" y2="423.11"/><line class="cls-22" x1="951.33" y1="389.12" x2="951.33" y2="404.5"/><line class="cls-22" x1="955.33" y1="389.12" x2="955.33" y2="404.5"/><line class="cls-22" x1="930.42" y1="361.46" x2="930.42" y2="385.79"/><line class="cls-24" x1="933.38" y1="361.46" x2="933.38" y2="377.66"/><line class="cls-22" x1="933.38" y1="332.12" x2="933.38" y2="351.96"/><line class="cls-24" x1="935.67" y1="337.78" x2="935.67" y2="356.46"/><line class="cls-24" x1="930.42" y1="303.25" x2="930.42" y2="327.12"/><line class="cls-22" x1="937" y1="327.12" x2="937" y2="303.25"/><line class="cls-22" x1="933.38" y1="310.11" x2="933.38" y2="320.11"/><line class="cls-22" x1="929" y1="296.54" x2="929" y2="277.5"/><line class="cls-22" x1="933.38" y1="282.1" x2="933.38" y2="297.79"/><line class="cls-24" x1="951.33" y1="273.46" x2="951.33" y2="291.21"/><line class="cls-22" x1="954" y1="282.1" x2="954" y2="297.79"/><line class="cls-22" x1="949.21" y1="302.79" x2="949.21" y2="320.11"/><line class="cls-24" x1="952.38" y1="308.19" x2="952.38" y2="327.12"/><line class="cls-24" x1="949.21" y1="332.12" x2="949.21" y2="355.96"/><line class="cls-22" x1="954" y1="337.78" x2="954" y2="356.46"/><line class="cls-22" x1="957" y1="361.46" x2="957" y2="383.12"/><line class="cls-22" x1="951.33" y1="361.46" x2="951.33" y2="379.62"/><line class="cls-24" x1="954" y1="361.46" x2="954" y2="370.54"/><line class="cls-16" x1="10" y1="205.52" x2="263.71" y2="205.52"/><line class="cls-16" x1="32.42" y1="224.18" x2="263.71" y2="224.18"/><line class="cls-25" x1="1040.38" y1="205.52" x2="1283.33" y2="205.52"/><line class="cls-25" x1="1040.38" y1="224.18" x2="1267.38" y2="224.18"/><rect class="cls-7" x="166.04" y="271.87" width="40" height="14.5"/><rect class="cls-7" x="206.04" y="286.37" width="40" height="14.5"/><rect class="cls-26" x="166.04" y="300.87" width="40" height="14.5"/><rect class="cls-7" x="126.04" y="315.37" width="40" height="14.5"/><rect class="cls-26" x="246.04" y="271.87" width="40" height="14.5"/><line class="cls-7" x1="166.04" y1="329.87" x2="206.04" y2="329.87"/><line class="cls-7" x1="206.04" y1="315.37" x2="246.04" y2="315.37"/><line class="cls-26" x1="246.04" y1="300.87" x2="286.04" y2="300.87"/><line class="cls-26" x1="246.04" y1="300.87" x2="246.04" y2="342.04"/><line class="cls-7" x1="246.04" y1="315.37" x2="271.04" y2="315.37"/><line class="cls-26" x1="206.04" y1="271.87" x2="246.04" y2="271.87"/><line class="cls-7" x1="166.04" y1="271.87" x2="141.38" y2="271.87"/><line class="cls-7" x1="167.71" y1="286.37" x2="155.38" y2="286.37"/><line class="cls-7" x1="286.04" y1="286.37" x2="302.71" y2="286.37"/><line class="cls-7" x1="286.04" y1="271.87" x2="294.38" y2="271.87"/><line class="cls-7" x1="126.04" y1="315.37" x2="107.38" y2="315.37"/><line class="cls-7" x1="126.04" y1="329.87" x2="119.04" y2="329.87"/><line class="cls-7" x1="166.04" y1="300.87" x2="141.38" y2="300.87"/><line class="cls-7" x1="166.04" y1="300.87" x2="166.04" y2="292.04"/><rect class="cls-7" x="1060.04" y="279.87" width="40" height="14.5"/><rect class="cls-7" x="1100.04" y="294.37" width="40" height="14.5"/><rect class="cls-26" x="1060.04" y="308.87" width="40" height="14.5"/><rect class="cls-7" x="1020.04" y="323.37" width="40" height="14.5"/><rect class="cls-26" x="1140.04" y="279.87" width="40" height="14.5"/><line class="cls-7" x1="1060.04" y1="337.87" x2="1100.04" y2="337.87"/><line class="cls-7" x1="1100.04" y1="323.37" x2="1140.04" y2="323.37"/><line class="cls-26" x1="1140.04" y1="308.87" x2="1180.04" y2="308.87"/><line class="cls-26" x1="1140.04" y1="308.87" x2="1140.04" y2="350.04"/><line class="cls-7" x1="1140.04" y1="323.37" x2="1165.04" y2="323.37"/><line class="cls-26" x1="1100.04" y1="279.87" x2="1140.04" y2="279.87"/><line class="cls-7" x1="1060.04" y1="279.87" x2="1035.38" y2="279.87"/><line class="cls-7" x1="1061.71" y1="294.37" x2="1049.38" y2="294.37"/><line class="cls-7" x1="1180.04" y1="294.37" x2="1196.71" y2="294.37"/><line class="cls-7" x1="1180.04" y1="279.87" x2="1188.38" y2="279.87"/><line class="cls-7" x1="1020.04" y1="323.37" x2="1001.38" y2="323.37"/><line class="cls-7" x1="1020.04" y1="337.87" x2="1013.04" y2="337.87"/><line class="cls-7" x1="1060.04" y1="308.87" x2="1035.38" y2="308.87"/><line class="cls-7" x1="1060.04" y1="308.87" x2="1060.04" y2="300.04"/><line class="cls-26" x1="263.71" y1="217.78" x2="190.04" y2="217.78"/><line class="cls-7" x1="137.67" y1="217.78" x2="22.67" y2="217.78"/><line class="cls-7" x1="1040.38" y1="211.48" x2="1179.93" y2="211.48"/><line class="cls-26" x1="1150.33" y1="217.78" x2="1252.67" y2="217.78"/><line class="cls-7" x1="471.46" y1="291.21" x2="429.33" y2="291.21"/><line class="cls-7" x1="471.46" y1="303.25" x2="447.83" y2="303.25"/><line class="cls-7" x1="545.96" y1="314.96" x2="575.58" y2="314.96"/><line class="cls-19" x1="545.96" y1="333.11" x2="545.96" y2="332.12"/><line class="cls-7" x1="545.96" y1="333.11" x2="566.08" y2="333.11"/><line class="cls-7" x1="545.9" y1="289.11" x2="558.83" y2="289.11"/><line class="cls-27" x1="552.36" y1="302.79" x2="596.58" y2="302.79"/><line class="cls-7" x1="407.04" y1="324.46" x2="461.08" y2="324.46"/><line class="cls-7" x1="596.58" y1="337.78" x2="614.79" y2="337.78"/><line class="cls-7" x1="614.79" y1="283.71" x2="580.4" y2="283.71"/><line class="cls-7" x1="689.29" y1="311.71" x2="737.33" y2="311.71"/><line class="cls-7" x1="689.29" y1="330.62" x2="723.65" y2="330.62"/><line class="cls-7" x1="689.23" y1="283.71" x2="699.33" y2="283.71"/><line class="cls-27" x1="758.13" y1="288.7" x2="706.47" y2="288.7"/><line class="cls-27" x1="758.13" y1="350.04" x2="713.31" y2="350.04"/><line class="cls-7" x1="832.63" y1="318.62" x2="856" y2="318.62"/><line class="cls-7" x1="832.63" y1="291.21" x2="874" y2="291.21"/><line class="cls-27" x1="866.98" y1="308.19" x2="897.04" y2="308.19"/><line class="cls-7" x1="856" y1="373.62" x2="896.98" y2="373.62"/><line class="cls-27" x1="882.01" y1="361.46" x2="897.04" y2="361.46"/><line class="cls-7" x1="115.9" y1="65.82" x2="161.54" y2="65.82"/><line class="cls-7" x1="119.04" y1="83.86" x2="184.79" y2="83.86"/><line class="cls-27" x1="158.67" y1="101.11" x2="184.79" y2="101.11"/><line class="cls-27" x1="115.9" y1="140.61" x2="155.38" y2="140.61"/><line class="cls-27" x1="259.29" y1="64.46" x2="300.06" y2="64.46"/><line class="cls-27" x1="305.33" y1="79.23" x2="327.04" y2="79.23"/><line class="cls-7" x1="316.19" y1="87.9" x2="327.04" y2="87.9"/><line class="cls-7" x1="258.54" y1="140.61" x2="274.67" y2="140.61"/><line class="cls-7" x1="291.96" y1="145.36" x2="327.04" y2="145.36"/><line class="cls-7" x1="308.38" y1="132.19" x2="327.04" y2="132.19"/><line class="cls-7" x1="402.63" y1="68.36" x2="452.83" y2="68.36"/><line class="cls-27" x1="443.4" y1="83.86" x2="471.46" y2="83.86"/><line class="cls-7" x1="459.65" y1="92.84" x2="471.46" y2="92.84"/><line class="cls-7" x1="402.63" y1="140.61" x2="422.04" y2="140.61"/><line class="cls-7" x1="402.56" y1="127.03" x2="430.69" y2="127.03"/><line class="cls-7" x1="443.4" y1="144.4" x2="471.46" y2="144.4"/><line class="cls-7" x1="545.96" y1="58.86" x2="586.75" y2="58.86"/><line class="cls-27" x1="556.33" y1="68.36" x2="610.38" y2="68.36"/><line class="cls-7" x1="583.35" y1="84.55" x2="608.33" y2="84.55"/><line class="cls-7" x1="545.96" y1="137.07" x2="574.47" y2="137.07"/><line class="cls-27" x1="591.33" y1="138.78" x2="614.79" y2="138.78"/><line class="cls-7" x1="591.33" y1="150.3" x2="614.79" y2="150.3"/><line class="cls-7" x1="689.29" y1="55.78" x2="747.33" y2="55.78"/><line class="cls-27" x1="689.29" y1="71.36" x2="727.33" y2="71.36"/><line class="cls-7" x1="689.29" y1="92.84" x2="706.47" y2="92.84"/><line class="cls-7" x1="732.3" y1="137.07" x2="758.13" y2="137.07"/><line class="cls-7" x1="747.33" y1="123.76" x2="758.13" y2="123.76"/><line class="cls-7" x1="832.63" y1="60.61" x2="866.98" y2="60.61"/><line class="cls-7" x1="832.63" y1="72.86" x2="881.98" y2="72.86"/><line class="cls-27" x1="859.58" y1="87.9" x2="901.46" y2="87.9"/><line class="cls-7" x1="832.63" y1="138.78" x2="866.98" y2="138.78"/><line class="cls-7" x1="832.63" y1="149.11" x2="859.58" y2="149.11"/><line class="cls-7" x1="975.96" y1="58.86" x2="1010.48" y2="58.86"/><line class="cls-7" x1="975.21" y1="68.36" x2="993.22" y2="68.36"/><line class="cls-27" x1="993.22" y1="81.19" x2="1044.79" y2="81.19"/><line class="cls-7" x1="1025.48" y1="106.42" x2="1044.79" y2="106.42"/><line class="cls-27" x1="975.96" y1="137.07" x2="1007.33" y2="137.07"/><line class="cls-7" x1="975.21" y1="149.11" x2="1007.33" y2="149.11"/><line class="cls-7" x1="1120.04" y1="65.82" x2="1162.83" y2="65.82"/><line class="cls-27" x1="1120.04" y1="101.11" x2="1168.33" y2="101.11"/><line class="cls-7" x1="1140.04" y1="84.55" x2="1188.13" y2="84.55"/><line class="cls-7" x1="1160.04" y1="131.69" x2="1188.13" y2="131.69"/><line class="cls-27" x1="116.71" y1="271.87" x2="32.42" y2="271.87"/><line class="cls-7" x1="10" y1="293.62" x2="91.21" y2="293.62"/><line class="cls-7" x1="56.67" y1="318.62" x2="91.21" y2="318.62"/><line class="cls-7" x1="101.88" y1="359.74" x2="213.33" y2="359.74"/><line class="cls-27" x1="148.06" y1="243.64" x2="271.04" y2="243.64"/><line class="cls-7" x1="226.04" y1="254.44" x2="266.04" y2="254.44"/><line class="cls-7" x1="1060.04" y1="246.44" x2="1267.04" y2="246.44"/><line class="cls-7" x1="1196.71" y1="262.62" x2="1284.33" y2="262.62"/><line class="cls-7" x1="1201.5" y1="329.46" x2="1267.04" y2="329.46"/><line class="cls-27" x1="1209.96" y1="308.19" x2="1240.79" y2="308.19"/><line class="cls-27" x1="1076.67" y1="368.37" x2="1184.21" y2="368.37"/><line class="cls-7" x1="1216.67" y1="366" x2="1240.79" y2="366"/><rect class="cls-10" x="40.55" y="3.21" width="20.71" height="20.71"/><rect class="cls-10" x="71.26" y="3.21" width="20.71" height="20.71"/><rect class="cls-10" x="101.97" y="3.21" width="20.71" height="20.71"/><rect class="cls-10" x="132.68" y="3.21" width="20.71" height="20.71"/><rect class="cls-10" x="163.39" y="3.21" width="20.71" height="20.71"/><rect class="cls-10" x="194.1" y="3.21" width="20.71" height="20.71"/><rect class="cls-10" x="224.81" y="3.21" width="20.71" height="20.71"/><rect class="cls-10" x="255.52" y="3.21" width="20.71" height="20.71"/><rect class="cls-10" x="286.22" y="3.21" width="20.71" height="20.71"/><rect class="cls-10" x="316.93" y="3.21" width="20.71" height="20.71"/><rect class="cls-10" x="347.64" y="3.21" width="20.71" height="20.71"/><rect class="cls-10" x="378.35" y="3.21" width="20.71" height="20.71"/><rect class="cls-10" x="409.06" y="3.21" width="20.71" height="20.71"/><rect class="cls-10" x="439.77" y="3.21" width="20.71" height="20.71"/><rect class="cls-10" x="470.48" y="3.21" width="20.71" height="20.71"/><rect class="cls-10" x="501.19" y="3.21" width="20.71" height="20.71"/><rect class="cls-10" x="531.89" y="3.21" width="20.71" height="20.71"/><rect class="cls-10" x="562.6" y="3.21" width="20.71" height="20.71"/><rect class="cls-10" x="593.31" y="3.21" width="20.71" height="20.71"/><rect class="cls-10" x="624.02" y="3.21" width="20.71" height="20.71"/><rect class="cls-10" x="654.73" y="3.21" width="20.71" height="20.71"/><rect class="cls-10" x="685.44" y="3.21" width="20.71" height="20.71"/><rect class="cls-10" x="716.15" y="3.21" width="20.71" height="20.71"/><rect class="cls-10" x="746.86" y="3.21" width="20.71" height="20.71"/><rect class="cls-10" x="777.57" y="3.21" width="20.71" height="20.71"/><rect class="cls-10" x="808.27" y="3.21" width="20.71" height="20.71"/><rect class="cls-10" x="838.98" y="3.21" width="20.71" height="20.71"/><rect class="cls-10" x="869.69" y="3.21" width="20.71" height="20.71"/><rect class="cls-10" x="900.4" y="3.21" width="20.71" height="20.71"/><rect class="cls-10" x="931.11" y="3.21" width="20.71" height="20.71"/><rect class="cls-10" x="961.82" y="3.21" width="20.71" height="20.71"/><rect class="cls-10" x="992.53" y="3.21" width="20.71" height="20.71"/><rect class="cls-10" x="1023.24" y="3.21" width="20.71" height="20.71"/><rect class="cls-10" x="1053.94" y="3.21" width="20.71" height="20.71"/><rect class="cls-10" x="1084.65" y="3.21" width="20.71" height="20.71"/><rect class="cls-10" x="1115.36" y="3.21" width="20.71" height="20.71"/><rect class="cls-10" x="1146.07" y="3.21" width="20.71" height="20.71"/><rect class="cls-10" x="1176.78" y="3.21" width="20.71" height="20.71"/><rect class="cls-10" x="1207.49" y="3.21" width="20.71" height="20.71"/><rect class="cls-10" x="1238.2" y="3.21" width="20.71" height="20.71"/><path class="cls-28" d="M386.74,254.6l-1.36-10.09-4.65,10.12h-1.42l-4.65-10.11-1.34,10.08h-4.89l2.65-17.51h4.81l4.13,9.52,4.15-9.52H389l2.62,17.51Z" transform="translate(-56.67 -30.89)"/><path class="cls-28" d="M418.87,237.09,414,248.84c-1.76,4.28-3.85,5.85-7.69,5.85h-1.56V250.3H406a2.75,2.75,0,0,0,2.59-1.07l-6.34-12.14h5.53l3.31,7.21,2.56-7.21Z" transform="translate(-56.67 -30.89)"/><path class="cls-28" d="M440.44,245.5a4.48,4.48,0,0,1,2.52,4.14c0,3.58-3.38,5.4-6.87,5.4-3.66,0-6.79-2.11-6.79-6h4.8a1.88,1.88,0,0,0,2,1.91,1.83,1.83,0,0,0,2-1.75c0-1-.8-1.67-2.1-1.67h-1.44V243.7h1.38c1.2,0,1.91-.67,1.91-1.57a1.61,1.61,0,0,0-1.75-1.61,1.74,1.74,0,0,0-1.85,1.73h-4.69c0-3.71,3.24-5.61,6.67-5.61,3.22,0,6.34,1.76,6.34,5.18a4.23,4.23,0,0,1-2.09,3.68Z" transform="translate(-56.67 -30.89)"/><path class="cls-28" d="M467.13,250.41v4.19H455.71V237.09h11.21v4.17h-6.41v2.57h5.75v4h-5.75v2.62Z" transform="translate(-56.67 -30.89)"/><path class="cls-28" d="M495.6,237.09V254.6h-4.74v-9.34l-7,9.34h-3.75V237.09h4.74v9.38l6.93-9.38Zm-9.17,4.38,0-4.47h3.31" transform="translate(-56.67 -30.89)"/><path class="cls-28" d="M536,245.35a4.61,4.61,0,0,1,2.69,4.26c0,2.84-2.45,5-5.69,5h-8.07V237.09h7.91c3.11,0,5.37,1.89,5.37,4.48a4.45,4.45,0,0,1-2.21,3.78ZM533.91,249a1.58,1.58,0,0,0-1.72-1.59h-2.62v3.19h2.62A1.58,1.58,0,0,0,533.91,249Zm-.28-6.67a1.48,1.48,0,0,0-1.63-1.53h-2.43v3H532a1.48,1.48,0,0,0,1.64-1.52Z" transform="translate(-56.67 -30.89)"/><path class="cls-28" d="M567.33,237.09V254.6H562.5V241.48h-3.38l-.68,6.09c-.53,4.73-2.73,7.08-6.68,7.08h-1.4v-4.43h.82c1.49,0,2.25-.86,2.48-2.82l1.21-10.31Z" transform="translate(-56.67 -30.89)"/><path class="cls-28" d="M591.62,251.75h-6.21l-1,2.85h-5.17l6.88-17.51h4.72l7,17.51h-5.32Zm-3.11-9.2L586.59,248h3.85Z" transform="translate(-56.67 -30.89)"/><path class="cls-28" d="M655.21,237.09V254.6h-4.74v-9.34l-7,9.34h-3.74V237.09h4.74v9.38l6.93-9.38Z" transform="translate(-56.67 -30.89)"/><path class="cls-28" d="M686.17,254.6l-1.36-10.09-4.65,10.12h-1.42l-4.64-10.11-1.35,10.08h-4.89l2.65-17.51h4.82l4.12,9.52,4.15-9.52h4.82L691,254.6Z" transform="translate(-56.67 -30.89)"/><path class="cls-28" d="M719.13,237.09V254.6h-4.74v-9.34l-7,9.34h-3.74V237.09h4.74v9.38l6.93-9.38Z" transform="translate(-56.67 -30.89)"/><path class="cls-28" d="M746.72,243.41a6.24,6.24,0,0,1-6.49,6.35h-2.62v4.84h-4.83V237.09h7.45A6.21,6.21,0,0,1,746.72,243.41Zm-5,0a2,2,0,0,0-2.11-2.12h-2v4.25h2A2,2,0,0,0,741.76,243.42Z" transform="translate(-56.67 -30.89)"/><path class="cls-28" d="M768.39,251.75h-6.21l-1,2.85H756l6.88-17.51h4.72l7,17.51h-5.31Zm-3.11-9.2L763.36,248h3.85Z" transform="translate(-56.67 -30.89)"/><path class="cls-28" d="M812.74,245.35a4.61,4.61,0,0,1,2.69,4.26c0,2.84-2.45,5-5.69,5h-8.07V237.09h7.91c3.11,0,5.37,1.89,5.37,4.48a4.45,4.45,0,0,1-2.21,3.78ZM810.65,249a1.58,1.58,0,0,0-1.72-1.59h-2.62v3.19h2.62A1.58,1.58,0,0,0,810.65,249Zm-.27-6.67a1.49,1.49,0,0,0-1.64-1.53h-2.43v3h2.43a1.48,1.48,0,0,0,1.64-1.52Z" transform="translate(-56.67 -30.89)"/><path class="cls-28" d="M842.14,248.37c0,3.65-2.69,6.23-6.49,6.23h-7.43V237.09H833v5.08h2.68C839.45,242.17,842.14,244.72,842.14,248.37Zm-4.85,0a2,2,0,0,0-2.23-2.05H833v4.13h2.09A2.06,2.06,0,0,0,837.29,248.37Zm11.31-11.28V254.6h-4.89V237.09Z" transform="translate(-56.67 -30.89)"/><path class="cls-28" d="M870.64,255a9.2,9.2,0,1,1,0-18.4,8.69,8.69,0,0,1,8.85,7.47h-4.88a4.16,4.16,0,0,0-4-3c-2.48,0-4.3,2-4.3,4.71a4.35,4.35,0,0,0,4.3,4.66,4,4,0,0,0,4-3.21h4.93a8.74,8.74,0,0,1-8.9,7.73Z" transform="translate(-56.67 -30.89)"/><path class="cls-28" d="M900.84,255c-5.63,0-9.65-3.85-9.65-9.2s4-9.2,9.65-9.2,9.62,3.84,9.62,9.2-4,9.2-9.62,9.2Zm0-4.49a4.71,4.71,0,1,0-4.62-4.71,4.49,4.49,0,0,0,4.62,4.71Z" transform="translate(-56.67 -30.89)"/><path class="cls-28" d="M962,254.6l-5-7.74v7.74h-4.82V237.09H957v7.38l4.63-7.38h5.59l-5.6,8.48,6.13,9Z" transform="translate(-56.67 -30.89)"/><path class="cls-28" d="M987.05,255c-5.63,0-9.65-3.85-9.65-9.2s4-9.2,9.65-9.2,9.62,3.84,9.62,9.2-4,9.2-9.62,9.2Zm0-4.49a4.71,4.71,0,1,0-4.62-4.71,4.49,4.49,0,0,0,4.62,4.71Z" transform="translate(-56.67 -30.89)"/><path class="cls-28" d="M1020.05,241.45h-5.79V254.6h-4.87V237.09h10.66Z" transform="translate(-56.67 -30.89)"/><path class="cls-28" d="M1040.76,255c-5.63,0-9.64-3.85-9.64-9.2s4-9.2,9.64-9.2,9.62,3.84,9.62,9.2-4,9.2-9.62,9.2Zm0-4.49a4.71,4.71,0,1,0-4.62-4.71,4.49,4.49,0,0,0,4.62,4.71Z" transform="translate(-56.67 -30.89)"/><rect class="cls-28" x="263.71" y="223.59" width="776.69" height="1.35"/><rect class="cls-28" x="263.68" y="204.76" width="776.69" height="1.35"/><path class="cls-28" d="M613.17,255.16v-.56h9.29v.56h4.42v-5h-1.76V237.09H612.34c-.71,9.39-.85,11.84-2,13.09h-1.61v5Zm3.45-13.7h3.76v8.72h-5.25C616,248.74,616.38,246.3,616.62,241.46Z" transform="translate(-56.67 -30.89)"/><polygon class="cls-28" points="878.18 224.27 882.6 224.27 882.6 219.29 880.87 219.29 880.87 206.19 876 206.19 876 219.29 871.38 219.29 871.38 206.19 866.51 206.19 866.51 223.71 878.18 223.71 878.18 224.27"/></svg>