<svg class="rooms-svg-map" width="546" height="319" viewBox="0 0 546 319" fill="none"
  xmlns="http://www.w3.org/2000/svg">

  <!-- Начало пути -->
  <g fill="#1B1A1A" data-rooms-map="1">
    <rect height="84.231361" width="179.32864" fill="#1B1A1A" y="193.9101" x="41.938313" />
    <rect x="0.866044" width="122.014" height="168.276" transform="matrix(0.866044 -0.499967 0.866044 0.499967 74.7825 194.442)" stroke="white"/>
    <line x1="42.9982" y1="262.5" x2="128.395" y2="262.196" stroke="white"/>
    <line x1="128.043" y1="262.343" x2="152.51" y2="237.876" stroke="white"/>
    <circle cx="152.219" cy="237.586" r="3.21932" fill="white"/>
    <path d="M45.352 254.1H49.36V258H50.572V249.636H49.36V252.984H45.352V249.636H44.14V258H45.352V254.1ZM58.4993 258H59.8673C58.8953 255.732 57.6833 252.396 56.7833 249.636H54.8033C53.7113 252.288 52.5833 255.36 51.7073 258H52.9673C53.2073 257.244 53.4593 256.464 53.7233 255.672H57.5993C57.8993 256.512 58.2233 257.304 58.4993 258ZM55.9073 250.644C56.3033 251.916 56.7593 253.308 57.2393 254.628H54.0713C54.5513 253.272 55.0553 251.928 55.5713 250.644H55.9073ZM65.049 253.68C65.049 254.208 64.209 254.496 63.165 254.496C61.749 254.496 61.161 254.196 61.161 252.624V249.636H59.937V252.756C59.937 255.168 61.149 255.636 62.997 255.636C63.885 255.636 64.713 255.42 65.049 255.192V258H66.261V249.636H65.049V253.68ZM74.2024 258H75.5704C74.5984 255.732 73.3864 252.396 72.4864 249.636H70.5064C69.4144 252.288 68.2864 255.36 67.4104 258H68.6704C68.9104 257.244 69.1624 256.464 69.4264 255.672H73.3024C73.6024 256.512 73.9264 257.304 74.2024 258ZM71.6104 250.644C72.0064 251.916 72.4624 253.308 72.9424 254.628H69.7744C70.2544 253.272 70.7584 251.928 71.2744 250.644H71.6104ZM81.8081 250.68V258H83.0201V249.636H77.6201C77.4881 252.684 76.7441 255.516 75.9281 258H77.2361C78.0401 255.696 78.5921 252.912 78.7481 250.68H81.8081ZM88.7285 249.432C86.1005 249.432 84.8405 250.356 84.8405 253.764C84.8405 257.208 86.1005 258.168 88.7285 258.168C91.3685 258.168 92.6165 257.208 92.6165 253.764C92.6165 250.356 91.3565 249.432 88.7285 249.432ZM88.7285 257.076C86.7485 257.076 86.1605 256.5 86.1605 253.788C86.1605 250.98 86.7485 250.512 88.7285 250.512C90.7205 250.512 91.3205 250.98 91.3205 253.788C91.3205 256.5 90.7205 257.076 88.7285 257.076ZM98.977 250.68H102.985V258H104.197V249.636H97.765V258H98.977V250.68ZM108.92 254.604C108.32 252.936 107.384 250.98 106.628 249.636H105.2C106.208 251.292 107.636 254.364 108.152 255.924C107.768 256.608 107.228 257.424 106.796 258H108.296C109.676 255.804 111.368 252.42 112.46 249.636H111.116C110.636 251.052 109.748 252.948 108.92 254.604ZM116.492 258V250.68H119.348V249.636H112.388V250.68H115.256V258H116.492ZM127.279 249.636H125.803C124.579 251.904 123.199 254.232 121.735 256.512V249.636H120.535V258H122.155C123.511 255.948 124.867 253.632 126.079 251.424V258H127.279V249.636Z" fill="white"/>
  </g>

  <!-- Гостиная -->
  <g fill="#1B1A1A" data-rooms-map="2">
    <rect height="42.071739" width="112.23692" fill="#1b1a1a" y="64.667" x="21.514999" />
    <rect x="0.866044" width="50.5187" height="50.5187" transform="matrix(0.866044 -0.499967 0.866044 0.499967 83.8875 107.182)" stroke="white"/>
    <line x1="21.5151" y1="80.627" x2="84.6137" y2="80.627" stroke="white"/>
    <line x1="83.6797" y1="80.7734" x2="100.42" y2="97.5138" stroke="white"/>
    <circle cx="100.711" cy="97.2232" r="3.21932" fill="white"/>
    <path d="M24.352 76V68.68H28.552V67.636H23.14V76H24.352ZM33.0528 67.432C30.4248 67.432 29.1648 68.356 29.1648 71.764C29.1648 75.208 30.4248 76.168 33.0528 76.168C35.6928 76.168 36.9408 75.208 36.9408 71.764C36.9408 68.356 35.6808 67.432 33.0528 67.432ZM33.0528 75.076C31.0728 75.076 30.4848 74.5 30.4848 71.788C30.4848 68.98 31.0728 68.512 33.0528 68.512C35.0448 68.512 35.6448 68.98 35.6448 71.788C35.6448 74.5 35.0448 75.076 33.0528 75.076ZM38.3288 71.74C38.3288 75.148 39.5768 76.168 42.2048 76.168C42.9608 76.168 43.9208 76.048 44.5688 75.856L44.2688 74.764C43.7888 74.932 42.9608 75.04 42.3488 75.04C40.3808 75.04 39.6488 74.56 39.6488 71.752C39.6488 68.932 40.3808 68.548 42.3488 68.548C42.9608 68.548 43.7888 68.656 44.2688 68.836L44.5688 67.744C43.9328 67.564 42.9608 67.432 42.2048 67.432C39.5768 67.432 38.3288 68.32 38.3288 71.74ZM48.945 76V68.68H51.801V67.636H44.841V68.68H47.709V76H48.945ZM59.7317 67.636H58.2557C57.0317 69.904 55.6517 72.232 54.1877 74.512V67.636H52.9877V76H54.6077C55.9637 73.948 57.3197 71.632 58.5317 69.424V76H59.7317V67.636ZM63.2231 72.1H67.2311V76H68.4431V67.636H67.2311V70.984H63.2231V67.636H62.0111V76H63.2231V72.1ZM76.3704 76H77.7384C76.7664 73.732 75.5544 70.396 74.6544 67.636H72.6744C71.5824 70.288 70.4544 73.36 69.5784 76H70.8384C71.0784 75.244 71.3304 74.464 71.5944 73.672H75.4704C75.7704 74.512 76.0944 75.304 76.3704 76ZM73.7784 68.644C74.1744 69.916 74.6304 71.308 75.1104 72.628H71.9424C72.4224 71.272 72.9264 69.928 73.4424 68.644H73.7784ZM83.5921 71.56H81.0121C80.2081 71.56 79.7761 71.044 79.7761 70.156C79.7761 69.184 80.2081 68.668 80.9641 68.668H83.5921V71.56ZM80.7241 72.28C79.7281 72.46 79.1881 72.952 78.0241 76H79.4521C80.4121 73.012 81.1081 72.592 82.1401 72.592H83.5921V76H84.8161V67.636H80.7721C78.9601 67.636 78.4201 68.752 78.4201 70.072C78.4201 71.248 78.9721 72.256 80.7241 72.28Z" fill="white"/>
  </g>

  <!-- Любовь и дружба -->
  <g fill="#1B1A1A" data-rooms-map="3">
    <rect height="63.946423" width="127.74827" fill="#1b1a1a" y="-0.193" x="115.519" />
    <rect x="0.866044" width="122.014" height="50.5187" transform="matrix(0.866044 -0.499967 0.866044 0.499967 137.611 76.1674)" stroke="white"/>
    <line x1="115.519" y1="27.8301" x2="179.905" y2="27.8301" stroke="white"/>
    <line x1="178.971" y1="27.9765" x2="194.424" y2="43.4292" stroke="white"/>
    <circle cx="194.219" cy="44.2193" r="3.21932" fill="white"/>
    <path d="M122.312 2.68V10H123.524V1.636H118.124C117.992 4.684 117.248 7.516 116.432 10H117.74C118.544 7.696 119.096 4.912 119.252 2.68H122.312ZM132.184 1.432C130.3 1.432 129.232 2.2 129.088 4.984H127V1.636H125.788V10H127V6.1H129.076C129.148 9.22 130.228 10.168 132.184 10.168C134.236 10.168 135.28 9.136 135.28 5.704C135.28 2.32 134.224 1.432 132.184 1.432ZM132.172 9.076C130.816 9.076 130.324 8.428 130.324 5.704C130.324 2.896 130.816 2.476 132.172 2.476C133.552 2.476 134.02 2.896 134.02 5.704C134.02 8.428 133.552 9.076 132.172 9.076ZM138.332 8.968V6.064H141.248C141.968 6.064 142.292 6.664 142.292 7.564C142.292 8.428 142.028 8.968 141.296 8.968H138.332ZM142.796 1.636H137.12V10H141.476C142.82 10 143.6 9.268 143.6 7.576C143.6 6.028 143.048 5.068 141.38 5.068H138.332V2.68H142.796V1.636ZM148.967 1.432C146.339 1.432 145.079 2.356 145.079 5.764C145.079 9.208 146.339 10.168 148.967 10.168C151.607 10.168 152.855 9.208 152.855 5.764C152.855 2.356 151.595 1.432 148.967 1.432ZM148.967 9.076C146.987 9.076 146.399 8.5 146.399 5.788C146.399 2.98 146.987 2.512 148.967 2.512C150.959 2.512 151.559 2.98 151.559 5.788C151.559 8.5 150.959 9.076 148.967 9.076ZM155.899 8.968V6.064H158.815C159.535 6.064 159.859 6.664 159.859 7.564C159.859 8.428 159.595 8.968 158.863 8.968H155.899ZM155.899 2.668H158.767C159.475 2.668 159.679 3.088 159.679 3.844C159.679 4.528 159.463 5.068 158.767 5.068H155.899V2.668ZM159.271 5.536C160.759 5.404 160.963 4.672 160.963 3.628C160.963 2.488 160.615 1.636 158.947 1.636H154.687V10H159.043C160.387 10 161.167 9.268 161.167 7.672C161.167 6.472 160.855 5.608 159.271 5.536ZM164.301 8.98V5.908H167.169C167.913 5.908 168.249 6.508 168.249 7.468C168.249 8.404 167.973 8.98 167.217 8.98H164.301ZM163.077 1.636V10H167.445C168.861 10 169.569 9.1 169.569 7.48C169.569 5.992 169.053 4.888 167.337 4.888H164.301V1.636H163.077ZM123.884 14.636H122.408C121.184 16.904 119.804 19.232 118.34 21.512V14.636H117.14V23H118.76C120.116 20.948 121.472 18.632 122.684 16.424V23H123.884V14.636ZM136.212 14.636H130.98C130.86 17.492 130.44 19.892 129.636 21.932H128.364L128.616 24.848H129.684V23H136.428V24.848H137.484L137.736 21.932H136.212V14.636ZM135.012 21.932H131.004C131.664 19.988 131.964 17.768 132.108 15.68H135.012V21.932ZM140.09 19.04V15.668H142.73C143.51 15.668 143.918 16.292 143.918 17.42C143.918 18.428 143.51 19.04 142.682 19.04H140.09ZM140.09 23V20.084H142.958C144.626 20.084 145.262 18.8 145.262 17.432C145.262 15.896 144.722 14.636 142.91 14.636H138.866V23H140.09ZM149.272 19.604C148.672 17.936 147.736 15.98 146.98 14.636H145.552C146.56 16.292 147.988 19.364 148.504 20.924C148.12 21.608 147.58 22.424 147.148 23H148.648C150.028 20.804 151.72 17.42 152.812 14.636H151.468C150.988 16.052 150.1 17.948 149.272 19.604ZM154.071 23C155.259 19.712 156.027 19.076 157.491 18.944V23H158.715V18.944C160.179 19.064 160.947 19.712 162.147 23H163.527C162.063 19.172 161.307 18.716 160.323 18.404C160.743 18.056 161.835 16.796 163.371 14.636H161.919C160.683 16.448 159.399 17.972 158.715 18.62V14.636H157.491V18.62C156.807 17.96 155.523 16.448 154.299 14.636H152.847C154.383 16.796 155.475 18.056 155.895 18.404C154.911 18.716 154.155 19.172 152.691 23H154.071ZM165.883 21.968V19.064H168.799C169.519 19.064 169.843 19.664 169.843 20.564C169.843 21.428 169.579 21.968 168.847 21.968H165.883ZM170.347 14.636H164.671V23H169.027C170.371 23 171.151 22.268 171.151 20.576C171.151 19.028 170.599 18.068 168.931 18.068H165.883V15.68H170.347V14.636ZM178.738 23H180.106C179.134 20.732 177.922 17.396 177.022 14.636H175.042C173.95 17.288 172.822 20.36 171.946 23H173.206C173.446 22.244 173.698 21.464 173.962 20.672H177.838C178.138 21.512 178.462 22.304 178.738 23ZM176.146 15.644C176.542 16.916 176.998 18.308 177.478 19.628H174.31C174.79 18.272 175.294 16.928 175.81 15.644H176.146Z" fill="white"/>
  </g>

  <!-- Театр и кино -->
  <g fill="#1B1A1A">
    <rect height="47.815853" width="157.15744" fill="#1b1a1a" y="154.92662" x="357.36429" />
    <rect x="0.866044" width="122.014" height="168.276" transform="matrix(0.866044 -0.499967 0.866044 0.499967 208.635 117.17)" stroke="#EDC92F"/>
    <line x1="511" y1="196.5" x2="423" y2="196.5" stroke="#EDC92F"/>
    <line x1="424.22" y1="196.088" x2="402.328" y2="174.197" stroke="#EDC92F"/>
    <circle cx="402.038" cy="173.199" r="3.21932" fill="#EDC92F"/>
    <path d="M429.152 191V183.68H432.008V182.636H425.048V183.68H427.916V191H429.152ZM433.195 182.636V191H439.087V189.956H434.407V187.088H437.731V186.056H434.407V183.68H439.087V182.636H433.195ZM446.242 191H447.61C446.638 188.732 445.426 185.396 444.526 182.636H442.546C441.454 185.288 440.326 188.36 439.45 191H440.71C440.95 190.244 441.201 189.464 441.466 188.672H445.342C445.642 189.512 445.966 190.304 446.242 191ZM443.65 183.644C444.046 184.916 444.502 186.308 444.982 187.628H441.814C442.294 186.272 442.798 184.928 443.314 183.644H443.65ZM450.843 191V183.68H453.699V182.636H446.739V183.68H449.607V191H450.843ZM456.098 187.04V183.668H458.738C459.518 183.668 459.926 184.292 459.926 185.42C459.926 186.428 459.518 187.04 458.69 187.04H456.098ZM456.098 191V188.084H458.966C460.634 188.084 461.27 186.8 461.27 185.432C461.27 183.896 460.73 182.636 458.918 182.636H454.874V191H456.098ZM472.88 182.636H471.404C470.18 184.904 468.8 187.232 467.336 189.512V182.636H466.136V191H467.756C469.112 188.948 470.468 186.632 471.68 184.424V191H472.88V182.636ZM485.016 191C483.396 187.172 482.544 186.716 481.464 186.404C481.932 186.056 483.144 184.796 484.848 182.636H483.312C481.92 184.496 480.432 186.056 479.688 186.68V182.636H478.476V191H479.688V186.956C481.344 187.088 482.208 187.676 483.564 191H485.016ZM492.896 182.636H491.42C490.196 184.904 488.816 187.232 487.352 189.512V182.636H486.152V191H487.772C489.128 188.948 490.484 186.632 491.696 184.424V191H492.896V182.636ZM496.387 187.1H500.395V191H501.607V182.636H500.395V185.984H496.387V182.636H495.175V191H496.387V187.1ZM507.314 182.432C504.686 182.432 503.426 183.356 503.426 186.764C503.426 190.208 504.686 191.168 507.314 191.168C509.954 191.168 511.202 190.208 511.202 186.764C511.202 183.356 509.942 182.432 507.314 182.432ZM507.314 190.076C505.334 190.076 504.746 189.5 504.746 186.788C504.746 183.98 505.334 183.512 507.314 183.512C509.306 183.512 509.906 183.98 509.906 186.788C509.906 189.5 509.306 190.076 507.314 190.076Z" fill="#EDC92F"/>
  </g>

  <!-- Кинозал -->
  <g fill="#1B1A1A" data-rooms-map="5">
    <rect height="63.225452" width="155.04182" fill="#1b1a1a" y="31.290958" x="304.51556" />
    <rect x="0.866044" width="58.9299" height="147.248" transform="matrix(0.866044 -0.499967 0.866044 0.499967 252.342 66.1063)" fill="#1B1A1A" stroke="white"/>
    <line x1="445" y1="46.8579" x2="385.942" y2="46.8579" stroke="white"/>
    <line x1="386.295" y1="46.7115" x2="363.116" y2="69.8905" stroke="white"/>
    <circle cx="363.406" cy="70.1812" r="3.21932" fill="white"/>
    <path d="M393.68 43C392.06 39.172 391.208 38.716 390.128 38.404C390.596 38.056 391.808 36.796 393.512 34.636H391.976C390.584 36.496 389.096 38.056 388.352 38.68V34.636H387.14V43H388.352V38.956C390.008 39.088 390.872 39.676 392.228 43H393.68ZM401.56 34.636H400.084C398.86 36.904 397.48 39.232 396.016 41.512V34.636H394.816V43H396.436C397.792 40.948 399.148 38.632 400.36 36.424V43H401.56V34.636ZM405.051 39.1H409.059V43H410.271V34.636H409.059V37.984H405.051V34.636H403.839V43H405.051V39.1ZM415.979 34.432C413.351 34.432 412.091 35.356 412.091 38.764C412.091 42.208 413.351 43.168 415.979 43.168C418.619 43.168 419.867 42.208 419.867 38.764C419.867 35.356 418.607 34.432 415.979 34.432ZM415.979 42.076C413.999 42.076 413.411 41.5 413.411 38.788C413.411 35.98 413.999 35.512 415.979 35.512C417.971 35.512 418.571 35.98 418.571 38.788C418.571 41.5 417.971 42.076 415.979 42.076ZM422.959 39.076H424.243C425.599 39.076 426.127 39.46 426.127 40.6C426.127 41.692 425.587 42.088 423.847 42.088C423.127 42.088 422.095 41.992 421.483 41.8L421.231 42.844C421.963 43.012 423.139 43.168 424.003 43.168C426.307 43.168 427.447 42.556 427.447 40.72C427.447 39.52 427.075 38.608 425.491 38.536C426.979 38.404 427.231 37.564 427.231 36.52C427.231 35.092 426.391 34.432 424.003 34.432C423.043 34.432 421.999 34.6 421.303 34.744L421.567 35.788C422.107 35.62 423.127 35.512 423.847 35.512C425.563 35.512 425.947 35.848 425.947 36.724C425.947 37.684 425.539 38.056 424.231 38.056H422.959V39.076ZM435.027 43H436.395C435.423 40.732 434.211 37.396 433.311 34.636H431.331C430.239 37.288 429.111 40.36 428.235 43H429.495C429.735 42.244 429.987 41.464 430.251 40.672H434.127C434.427 41.512 434.751 42.304 435.027 43ZM432.435 35.644C432.831 36.916 433.287 38.308 433.767 39.628H430.599C431.079 38.272 431.583 36.928 432.099 35.644H432.435ZM442.632 35.68V43H443.844V34.636H438.444C438.312 37.684 437.568 40.516 436.752 43H438.06C438.864 40.696 439.416 37.912 439.572 35.68H442.632Z" fill="white"/>

    <path d="M407.813 138.31C407.826 138.337 407.833 138.377 407.833 138.431V141.65H411.052C411.213 141.65 411.351 141.7 411.465 141.801C411.579 141.902 411.649 142.026 411.676 142.173C411.689 142.2 411.696 142.24 411.696 142.294V145.513H414.915C415.09 145.513 415.241 145.577 415.368 145.704C415.495 145.832 415.559 145.983 415.559 146.157C415.559 146.332 415.495 146.482 415.368 146.61C415.241 146.737 415.09 146.801 414.915 146.801H411.052C410.891 146.801 410.754 146.751 410.64 146.65C410.526 146.549 410.455 146.425 410.428 146.278C410.415 146.251 410.408 146.211 410.408 146.157V142.938H407.189C407.028 142.938 406.891 142.888 406.776 142.787C406.662 142.686 406.592 142.562 406.565 142.415C406.552 142.388 406.545 142.348 406.545 142.294V139.075H403.326C403.165 139.075 403.027 139.024 402.913 138.924C402.799 138.823 402.729 138.699 402.702 138.551C402.689 138.525 402.682 138.484 402.682 138.431V135.211H399.463C399.302 135.211 399.164 135.161 399.05 135.061C398.936 134.96 398.866 134.836 398.839 134.688C398.825 134.661 398.819 134.621 398.819 134.568V131.348H395.599C395.425 131.348 395.274 131.285 395.147 131.157C395.019 131.03 394.956 130.879 394.956 130.704C394.956 130.53 395.019 130.379 395.147 130.252C395.274 130.124 395.425 130.061 395.599 130.061H399.463C399.624 130.061 399.761 130.111 399.875 130.211C399.989 130.312 400.06 130.436 400.086 130.584C400.1 130.611 400.106 130.651 400.106 130.704V133.924H403.326C403.487 133.924 403.624 133.974 403.738 134.075C403.852 134.175 403.923 134.299 403.95 134.447C403.963 134.474 403.97 134.514 403.97 134.568V137.787H407.189C407.35 137.787 407.487 137.837 407.601 137.938C407.715 138.038 407.786 138.162 407.813 138.31Z" fill="white"/>
    <path d="M416.827 133.159C416.84 133.186 416.847 133.226 416.847 133.28V136.499H420.066C420.227 136.499 420.365 136.55 420.479 136.65C420.593 136.751 420.663 136.875 420.69 137.022C420.703 137.049 420.71 137.089 420.71 137.143V140.362H423.929C424.104 140.362 424.255 140.426 424.382 140.554C424.51 140.681 424.573 140.832 424.573 141.006C424.573 141.181 424.51 141.332 424.382 141.459C424.255 141.586 424.104 141.65 423.929 141.65H420.066C419.905 141.65 419.768 141.6 419.654 141.499C419.54 141.399 419.469 141.275 419.443 141.127C419.429 141.1 419.422 141.06 419.422 141.006V137.787H416.203C416.042 137.787 415.905 137.737 415.791 137.636C415.677 137.535 415.606 137.411 415.579 137.264C415.566 137.237 415.559 137.197 415.559 137.143V133.924H412.34C412.179 133.924 412.041 133.873 411.927 133.773C411.813 133.672 411.743 133.548 411.716 133.401C411.703 133.374 411.696 133.334 411.696 133.28V130.061H408.477C408.316 130.061 408.178 130.01 408.064 129.91C407.95 129.809 407.88 129.685 407.853 129.537C407.84 129.511 407.833 129.47 407.833 129.417V126.197H404.614C404.439 126.197 404.288 126.134 404.161 126.006C404.033 125.879 403.97 125.728 403.97 125.554C403.97 125.379 404.033 125.228 404.161 125.101C404.288 124.973 404.439 124.91 404.614 124.91H408.477C408.638 124.91 408.775 124.96 408.889 125.061C409.003 125.161 409.074 125.285 409.101 125.433C409.114 125.46 409.121 125.5 409.121 125.554V128.773H412.34C412.501 128.773 412.638 128.823 412.752 128.924C412.866 129.024 412.937 129.148 412.964 129.296C412.977 129.323 412.984 129.363 412.984 129.417V132.636H416.203C416.364 132.636 416.502 132.686 416.616 132.787C416.73 132.888 416.8 133.012 416.827 133.159Z" fill="white"/>
  </g>

  <!-- Стрелочки -->
  <path d="M231.895 129.878C231.895 129.683 231.621 129.525 231.283 129.525L225.771 129.525C225.433 129.525 225.159 129.683 225.159 129.878C225.159 130.074 225.433 130.232 225.771 130.232L230.67 130.232L230.67 133.06C230.67 133.255 230.944 133.414 231.283 133.414C231.621 133.414 231.895 133.255 231.895 133.06L231.895 129.878ZM204.399 145.898L231.716 130.128L230.85 129.628L203.533 145.398L204.399 145.898Z" fill="white"/>
  <path d="M168.454 109.023C168.116 109.023 167.841 109.181 167.841 109.377L167.841 112.558C167.841 112.754 168.116 112.912 168.454 112.912C168.792 112.912 169.066 112.754 169.066 112.558L169.066 109.73L173.965 109.73C174.303 109.73 174.578 109.572 174.578 109.377C174.578 109.181 174.303 109.023 173.965 109.023L168.454 109.023ZM218.057 137.513L168.887 109.127L168.021 109.627L217.191 138.013L218.057 137.513Z" fill="white"/>
  <path d="M196.681 92.7278C196.343 92.7278 196.069 92.8861 196.069 93.0814L196.069 96.2631C196.069 96.4584 196.343 96.6167 196.681 96.6167C197.019 96.6167 197.294 96.4584 197.294 96.2631L197.294 93.4349L202.193 93.4349C202.531 93.4349 202.805 93.2766 202.805 93.0814C202.805 92.8861 202.531 92.7278 202.193 92.7278L196.681 92.7278ZM223.52 108.076L197.114 92.8314L196.248 93.3313L222.654 108.576L223.52 108.076Z" fill="white"/>
  <path d="M241.299 266.723C240.96 266.723 240.686 266.882 240.686 267.077L240.686 270.259C240.686 270.454 240.96 270.612 241.299 270.612C241.637 270.612 241.911 270.454 241.911 270.259L241.911 267.431L246.81 267.431C247.148 267.431 247.422 267.272 247.422 267.077C247.422 266.882 247.148 266.723 246.81 266.723L241.299 266.723ZM259.943 277.34L241.732 266.827L240.866 267.327L259.077 277.84L259.943 277.34Z" fill="white"/>
  <circle r="19.4766" transform="matrix(0.866044 -0.499967 0.866044 0.499967 283.185 291.257)" stroke="white"/>
  <path d="M306.859 304.925C293.784 312.473 272.585 312.473 259.51 304.925C246.434 297.376 246.434 285.138 259.51 277.59" stroke="white"/>
  <path d="M273.938 297.594L273.033 297.071L274.214 296.389C274.5 296.224 274.767 296.202 275.129 296.411C275.462 296.604 275.424 296.736 275.158 296.89L273.938 297.594ZM271.233 296.032L272.404 295.355C272.652 295.212 272.852 295.196 273.157 295.372C273.443 295.537 273.433 295.663 273.186 295.806L272.014 296.483L271.233 296.032ZM274.329 295.663C275.234 295.064 275.043 294.723 274.357 294.327C273.595 293.887 272.9 293.815 271.785 294.459L268.68 296.252L273.557 299.067L276.691 297.258C277.596 296.736 277.825 296.219 276.844 295.652C276.082 295.212 275.396 295.091 274.329 295.663ZM283.624 293.256C282.567 293.118 281.014 292.948 279.49 292.794C279.233 291.908 278.956 291.012 278.747 290.451L277.156 291.369C277.27 291.666 277.451 292.101 277.594 292.601C276.746 292.519 275.927 292.442 275.355 292.409L273.679 293.377C274.688 293.432 276.327 293.564 277.956 293.723C278.213 294.686 278.451 295.659 278.528 296.198L280.118 295.28C280.061 294.939 279.947 294.466 279.804 293.921C280.661 294.009 281.443 294.097 282.014 294.185L283.624 293.256ZM286.468 291.768C288.059 290.849 288.25 290.046 286.249 288.892C284.258 287.742 282.905 287.885 281.324 288.798C279.771 289.694 279.514 290.481 281.505 291.63C283.505 292.785 284.896 292.675 286.468 291.768ZM282.467 289.458C283.162 289.057 283.515 289.029 284.792 289.766C286.02 290.475 286.02 290.706 285.325 291.108C284.639 291.504 284.239 291.504 283.01 290.794C281.734 290.057 281.781 289.854 282.467 289.458ZM285.828 286.352C286.933 287.067 287.943 287.924 288.829 288.799L287.915 289.327L290.906 290.68L292.106 289.987L290.696 289.173L294.116 287.199L295.526 288.012L296.717 287.325L294.374 285.598L293.411 286.154L289.791 284.064L285.828 286.352ZM289.591 285.631L291.954 286.995L290.353 287.919C289.744 287.314 289.039 286.731 288.41 286.313L289.591 285.631Z" fill="white"/>
</svg>
