<svg width="23" height="17" viewBox="0 0 23 17" fill="none" xmlns="http://www.w3.org/2000/svg">
<path d="M5.15937 6.75584C4.90701 6.75584 4.66484 6.79432 4.42381 6.8294C4.50189 6.56686 4.58223 6.29979 4.71124 6.05989C4.84025 5.71135 5.04168 5.4092 5.24198 5.10479C5.40946 4.77549 5.70481 4.55255 5.92209 4.27078C6.14954 3.99692 6.45961 3.81473 6.70518 3.58727C6.94621 3.34963 7.26194 3.23081 7.51316 3.06333C7.7757 2.91282 8.00429 2.74647 8.24872 2.66726L8.85867 2.41603L9.39506 2.1931L8.84622 0L8.17064 0.162954C7.9545 0.217273 7.69083 0.280644 7.39094 0.356464C7.08427 0.413045 6.75723 0.568079 6.39285 0.709533C6.03299 0.870225 5.61655 0.978861 5.22953 1.23687C4.84025 1.48357 4.39099 1.68953 3.99492 2.01996C3.61129 2.36058 3.14846 2.65594 2.8067 3.08935C2.43327 3.49448 2.06435 3.91997 1.77805 4.40431C1.44648 4.86602 1.22129 5.37299 0.983645 5.8743C0.768635 6.37561 0.595496 6.88824 0.454042 7.38616C0.185845 8.38426 0.0658918 9.33257 0.0194949 10.1439C-0.0189806 10.9565 0.00365206 11.632 0.0511806 12.1209C0.0681551 12.3518 0.0998408 12.5758 0.122473 12.7309L0.150764 12.921L0.180187 12.9142C0.38146 13.8544 0.844798 14.7184 1.5166 15.4062C2.18841 16.0941 3.04122 16.5777 3.9764 16.8011C4.91158 17.0246 5.8909 16.9787 6.80109 16.6687C7.71127 16.3588 8.51511 15.7976 9.11963 15.0499C9.72415 14.3022 10.1046 13.3987 10.2171 12.4438C10.3296 11.4889 10.1694 10.5216 9.75507 9.65397C9.34078 8.78631 8.68931 8.05367 7.87602 7.5408C7.06273 7.02792 6.12086 6.75578 5.15937 6.75584ZM17.6073 6.75584C17.355 6.75584 17.1128 6.79432 16.8718 6.8294C16.9498 6.56686 17.0302 6.29979 17.1592 6.05989C17.2882 5.71135 17.4896 5.4092 17.6899 5.10479C17.8574 4.77549 18.1528 4.55255 18.37 4.27078C18.5975 3.99692 18.9076 3.81473 19.1531 3.58727C19.3942 3.34963 19.7099 3.23081 19.9611 3.06333C20.2236 2.91282 20.4522 2.74647 20.6967 2.66726L21.3066 2.41603L21.843 2.1931L21.2942 0L20.6186 0.162954C20.4024 0.217273 20.1388 0.280644 19.8389 0.356464C19.5322 0.413045 19.2052 0.568079 18.8408 0.709533C18.4821 0.871356 18.0645 0.978861 17.6775 1.238C17.2882 1.4847 16.8389 1.69066 16.4429 2.02109C16.0592 2.36172 15.5964 2.65707 15.2547 3.08935C14.8812 3.49448 14.5123 3.91997 14.226 4.40431C13.8944 4.86602 13.6692 5.37299 13.4316 5.8743C13.2166 6.37561 13.0434 6.88824 12.902 7.38616C12.6338 8.38426 12.5138 9.33257 12.4674 10.1439C12.429 10.9565 12.4516 11.632 12.4991 12.1209C12.5161 12.3518 12.5478 12.5758 12.5704 12.7309L12.5987 12.921L12.6281 12.9142C12.8294 13.8544 13.2927 14.7184 13.9646 15.4062C14.6364 16.0941 15.4892 16.5777 16.4244 16.8011C17.3595 17.0246 18.3389 16.9787 19.249 16.6687C20.1592 16.3588 20.9631 15.7976 21.5676 15.0499C22.1721 14.3022 22.5526 13.3987 22.6651 12.4438C22.7775 11.4889 22.6173 10.5216 22.203 9.65397C21.7887 8.78631 21.1373 8.05367 20.324 7.5408C19.5107 7.02792 18.5688 6.75578 17.6073 6.75584Z" fill="white"/>
</svg>
